<?xml version="1.0" encoding="utf-8" standalone="no"?>
<!DOCTYPE svg PUBLIC "-//W3C//DTD SVG 1.1//EN"
  "http://www.w3.org/Graphics/SVG/1.1/DTD/svg11.dtd">
<svg xmlns:xlink="http://www.w3.org/1999/xlink" width="1000.8pt" height="712.558125pt" viewBox="0 0 1000.8 712.558125" xmlns="http://www.w3.org/2000/svg" version="1.1">
 <metadata>
  <rdf:RDF xmlns:dc="http://purl.org/dc/elements/1.1/" xmlns:cc="http://creativecommons.org/ns#" xmlns:rdf="http://www.w3.org/1999/02/22-rdf-syntax-ns#">
   <cc:Work>
    <dc:type rdf:resource="http://purl.org/dc/dcmitype/StillImage"/>
    <dc:date>2026-04-20T21:11:40.584822</dc:date>
    <dc:format>image/svg+xml</dc:format>
    <dc:creator>
     <cc:Agent>
      <dc:title>Matplotlib v3.10.8, https://matplotlib.org/</dc:title>
     </cc:Agent>
    </dc:creator>
   </cc:Work>
  </rdf:RDF>
 </metadata>
 <defs>
  <style type="text/css">*{stroke-linejoin: round; stroke-linecap: butt}</style>
 </defs>
 <g id="figure_1">
  <g id="patch_1">
   <path d="M 0 712.558125 
L 1000.8 712.558125 
L 1000.8 0 
L 0 0 
z
" style="fill: #ffffff"/>
  </g>
  <g id="axes_1">
   <g id="LineCollection_1">
    <path d="M 499.879545 305.314046 
L 555.798185 383.59139 
" clip-path="url(#p9a214d14f0)" style="fill: none; stroke: #bdbdbd; stroke-opacity: 0.75; stroke-width: 0.8"/>
    <path d="M 499.879545 305.314046 
L 417.999906 351.161643 
" clip-path="url(#p9a214d14f0)" style="fill: none; stroke: #bdbdbd; stroke-opacity: 0.75; stroke-width: 0.8"/>
    <path d="M 499.879545 305.314046 
L 496.55577 289.475 
" clip-path="url(#p9a214d14f0)" style="fill: none; stroke: #bdbdbd; stroke-opacity: 0.75; stroke-width: 0.8"/>
    <path d="M 499.879545 305.314046 
L 444.805853 285.313187 
" clip-path="url(#p9a214d14f0)" style="fill: none; stroke: #bdbdbd; stroke-opacity: 0.75; stroke-width: 0.8"/>
    <path d="M 499.879545 305.314046 
L 512.499389 271.309261 
" clip-path="url(#p9a214d14f0)" style="fill: none; stroke: #bdbdbd; stroke-opacity: 0.75; stroke-width: 0.8"/>
    <path d="M 499.879545 305.314046 
L 459.290339 321.579071 
" clip-path="url(#p9a214d14f0)" style="fill: none; stroke: #bdbdbd; stroke-opacity: 0.75; stroke-width: 0.8"/>
    <path d="M 499.879545 305.314046 
L 527.880235 259.616437 
" clip-path="url(#p9a214d14f0)" style="fill: none; stroke: #bdbdbd; stroke-opacity: 0.75; stroke-width: 0.8"/>
    <path d="M 499.879545 305.314046 
L 543.75604 286.035424 
" clip-path="url(#p9a214d14f0)" style="fill: none; stroke: #bdbdbd; stroke-opacity: 0.75; stroke-width: 0.8"/>
    <path d="M 499.879545 305.314046 
L 502.777512 255.494678 
" clip-path="url(#p9a214d14f0)" style="fill: none; stroke: #bdbdbd; stroke-opacity: 0.75; stroke-width: 0.8"/>
    <path d="M 499.879545 305.314046 
L 555.97232 251.049903 
" clip-path="url(#p9a214d14f0)" style="fill: none; stroke: #bdbdbd; stroke-opacity: 0.75; stroke-width: 0.8"/>
    <path d="M 499.879545 305.314046 
L 482.159294 261.695607 
" clip-path="url(#p9a214d14f0)" style="fill: none; stroke: #bdbdbd; stroke-opacity: 0.75; stroke-width: 0.8"/>
    <path d="M 499.879545 305.314046 
L 475.894992 276.283192 
" clip-path="url(#p9a214d14f0)" style="fill: none; stroke: #bdbdbd; stroke-opacity: 0.75; stroke-width: 0.8"/>
    <path d="M 555.798185 383.59139 
L 482.312456 360.484436 
" clip-path="url(#p9a214d14f0)" style="fill: none; stroke: #bdbdbd; stroke-opacity: 0.75; stroke-width: 0.8"/>
    <path d="M 555.798185 383.59139 
L 600.207232 367.478845 
" clip-path="url(#p9a214d14f0)" style="fill: none; stroke: #bdbdbd; stroke-opacity: 0.75; stroke-width: 0.8"/>
    <path d="M 555.798185 383.59139 
L 601.785901 388.565983 
" clip-path="url(#p9a214d14f0)" style="fill: none; stroke: #bdbdbd; stroke-opacity: 0.75; stroke-width: 0.8"/>
    <path d="M 555.798185 383.59139 
L 538.120592 426.449152 
" clip-path="url(#p9a214d14f0)" style="fill: none; stroke: #bdbdbd; stroke-opacity: 0.75; stroke-width: 0.8"/>
    <path d="M 555.798185 383.59139 
L 527.085033 409.160187 
" clip-path="url(#p9a214d14f0)" style="fill: none; stroke: #bdbdbd; stroke-opacity: 0.75; stroke-width: 0.8"/>
    <path d="M 555.798185 383.59139 
L 594.632586 408.889589 
" clip-path="url(#p9a214d14f0)" style="fill: none; stroke: #bdbdbd; stroke-opacity: 0.75; stroke-width: 0.8"/>
    <path d="M 555.798185 383.59139 
L 585.783818 424.884395 
" clip-path="url(#p9a214d14f0)" style="fill: none; stroke: #bdbdbd; stroke-opacity: 0.75; stroke-width: 0.8"/>
    <path d="M 555.798185 383.59139 
L 562.218449 426.958432 
" clip-path="url(#p9a214d14f0)" style="fill: none; stroke: #bdbdbd; stroke-opacity: 0.75; stroke-width: 0.8"/>
    <path d="M 555.798185 383.59139 
L 629.32825 398.674918 
" clip-path="url(#p9a214d14f0)" style="fill: none; stroke: #bdbdbd; stroke-opacity: 0.75; stroke-width: 0.8"/>
    <path d="M 417.999906 351.161643 
L 482.312456 360.484436 
" clip-path="url(#p9a214d14f0)" style="fill: none; stroke: #bdbdbd; stroke-opacity: 0.75; stroke-width: 0.8"/>
    <path d="M 417.999906 351.161643 
L 362.48802 347.836459 
" clip-path="url(#p9a214d14f0)" style="fill: none; stroke: #bdbdbd; stroke-opacity: 0.75; stroke-width: 0.8"/>
    <path d="M 417.999906 351.161643 
L 362.651243 366.999383 
" clip-path="url(#p9a214d14f0)" style="fill: none; stroke: #bdbdbd; stroke-opacity: 0.75; stroke-width: 0.8"/>
    <path d="M 417.999906 351.161643 
L 376.963584 382.500055 
" clip-path="url(#p9a214d14f0)" style="fill: none; stroke: #bdbdbd; stroke-opacity: 0.75; stroke-width: 0.8"/>
    <path d="M 417.999906 351.161643 
L 401.249144 389.922727 
" clip-path="url(#p9a214d14f0)" style="fill: none; stroke: #bdbdbd; stroke-opacity: 0.75; stroke-width: 0.8"/>
    <path d="M 417.999906 351.161643 
L 395.603505 320.821468 
" clip-path="url(#p9a214d14f0)" style="fill: none; stroke: #bdbdbd; stroke-opacity: 0.75; stroke-width: 0.8"/>
    <path d="M 482.312456 360.484436 
L 459.290339 321.579071 
" clip-path="url(#p9a214d14f0)" style="fill: none; stroke: #bdbdbd; stroke-opacity: 0.75; stroke-width: 0.8"/>
    <path d="M 496.55577 289.475 
L 512.499389 271.309261 
" clip-path="url(#p9a214d14f0)" style="fill: none; stroke: #bdbdbd; stroke-opacity: 0.75; stroke-width: 0.8"/>
    <path d="M 496.55577 289.475 
L 459.290339 321.579071 
" clip-path="url(#p9a214d14f0)" style="fill: none; stroke: #bdbdbd; stroke-opacity: 0.75; stroke-width: 0.8"/>
    <path d="M 496.55577 289.475 
L 527.880235 259.616437 
" clip-path="url(#p9a214d14f0)" style="fill: none; stroke: #bdbdbd; stroke-opacity: 0.75; stroke-width: 0.8"/>
    <path d="M 512.499389 271.309261 
L 555.97232 251.049903 
" clip-path="url(#p9a214d14f0)" style="fill: none; stroke: #bdbdbd; stroke-opacity: 0.75; stroke-width: 0.8"/>
    <path d="M 512.499389 271.309261 
L 482.159294 261.695607 
" clip-path="url(#p9a214d14f0)" style="fill: none; stroke: #bdbdbd; stroke-opacity: 0.75; stroke-width: 0.8"/>
    <path d="M 512.499389 271.309261 
L 475.894992 276.283192 
" clip-path="url(#p9a214d14f0)" style="fill: none; stroke: #bdbdbd; stroke-opacity: 0.75; stroke-width: 0.8"/>
    <path d="M 459.290339 321.579071 
L 395.603505 320.821468 
" clip-path="url(#p9a214d14f0)" style="fill: none; stroke: #bdbdbd; stroke-opacity: 0.75; stroke-width: 0.8"/>
    <path d="M 527.880235 259.616437 
L 543.75604 286.035424 
" clip-path="url(#p9a214d14f0)" style="fill: none; stroke: #bdbdbd; stroke-opacity: 0.75; stroke-width: 0.8"/>
    <path d="M 527.880235 259.616437 
L 502.777512 255.494678 
" clip-path="url(#p9a214d14f0)" style="fill: none; stroke: #bdbdbd; stroke-opacity: 0.75; stroke-width: 0.8"/>
    <path d="M 395.603505 320.821468 
L 341.767194 305.462242 
" clip-path="url(#p9a214d14f0)" style="fill: none; stroke: #bdbdbd; stroke-opacity: 0.75; stroke-width: 0.8"/>
    <path d="M 629.32825 398.674918 
L 757.369429 432.750781 
" clip-path="url(#p9a214d14f0)" style="fill: none; stroke: #bdbdbd; stroke-opacity: 0.75; stroke-width: 0.8"/>
    <path d="M 555.97232 251.049903 
L 579.574286 210.690439 
" clip-path="url(#p9a214d14f0)" style="fill: none; stroke: #bdbdbd; stroke-opacity: 0.75; stroke-width: 0.8"/>
    <path d="M 555.97232 251.049903 
L 604.83984 227.945038 
" clip-path="url(#p9a214d14f0)" style="fill: none; stroke: #bdbdbd; stroke-opacity: 0.75; stroke-width: 0.8"/>
   </g>
   <g id="PathCollection_1">
    <path d="M 499.879545 311.833249 
C 501.608458 311.833249 503.266792 311.146345 504.489317 309.923819 
C 505.711843 308.701293 506.398748 307.042959 506.398748 305.314046 
C 506.398748 303.585134 505.711843 301.9268 504.489317 300.704274 
C 503.266792 299.481748 501.608458 298.794844 499.879545 298.794844 
C 498.150633 298.794844 496.492299 299.481748 495.269773 300.704274 
C 494.047247 301.9268 493.360343 303.585134 493.360343 305.314046 
C 493.360343 307.042959 494.047247 308.701293 495.269773 309.923819 
C 496.492299 311.146345 498.150633 311.833249 499.879545 311.833249 
z
" clip-path="url(#p9a214d14f0)" style="fill: #72b7b2; fill-opacity: 0.95; stroke: #72b7b2; stroke-opacity: 0.95"/>
    <path d="M 555.798185 390.110592 
C 557.527098 390.110592 559.185431 389.423688 560.407957 388.201162 
C 561.630483 386.978636 562.317387 385.320303 562.317387 383.59139 
C 562.317387 381.862477 561.630483 380.204144 560.407957 378.981618 
C 559.185431 377.759092 557.527098 377.072187 555.798185 377.072187 
C 554.069272 377.072187 552.410939 377.759092 551.188413 378.981618 
C 549.965887 380.204144 549.278983 381.862477 549.278983 383.59139 
C 549.278983 385.320303 549.965887 386.978636 551.188413 388.201162 
C 552.410939 389.423688 554.069272 390.110592 555.798185 390.110592 
z
" clip-path="url(#p9a214d14f0)" style="fill: #72b7b2; fill-opacity: 0.95; stroke: #72b7b2; stroke-opacity: 0.95"/>
    <path d="M 417.999906 357.680845 
C 419.728819 357.680845 421.387153 356.993941 422.609679 355.771415 
C 423.832205 354.548889 424.519109 352.890556 424.519109 351.161643 
C 424.519109 349.43273 423.832205 347.774397 422.609679 346.551871 
C 421.387153 345.329345 419.728819 344.642441 417.999906 344.642441 
C 416.270994 344.642441 414.61266 345.329345 413.390134 346.551871 
C 412.167608 347.774397 411.480704 349.43273 411.480704 351.161643 
C 411.480704 352.890556 412.167608 354.548889 413.390134 355.771415 
C 414.61266 356.993941 416.270994 357.680845 417.999906 357.680845 
z
" clip-path="url(#p9a214d14f0)" style="fill: #72b7b2; fill-opacity: 0.95; stroke: #72b7b2; stroke-opacity: 0.95"/>
    <path d="M 482.312456 367.003638 
C 484.041369 367.003638 485.699703 366.316734 486.922229 365.094208 
C 488.144755 363.871682 488.831659 362.213348 488.831659 360.484436 
C 488.831659 358.755523 488.144755 357.097189 486.922229 355.874663 
C 485.699703 354.652138 484.041369 353.965233 482.312456 353.965233 
C 480.583544 353.965233 478.92521 354.652138 477.702684 355.874663 
C 476.480158 357.097189 475.793254 358.755523 475.793254 360.484436 
C 475.793254 362.213348 476.480158 363.871682 477.702684 365.094208 
C 478.92521 366.316734 480.583544 367.003638 482.312456 367.003638 
z
" clip-path="url(#p9a214d14f0)" style="fill: #72b7b2; fill-opacity: 0.95; stroke: #72b7b2; stroke-opacity: 0.95"/>
    <path d="M 496.55577 295.994203 
C 498.284683 295.994203 499.943017 295.307299 501.165543 294.084773 
C 502.388069 292.862247 503.074973 291.203913 503.074973 289.475 
C 503.074973 287.746088 502.388069 286.087754 501.165543 284.865228 
C 499.943017 283.642702 498.284683 282.955798 496.55577 282.955798 
C 494.826858 282.955798 493.168524 283.642702 491.945998 284.865228 
C 490.723472 286.087754 490.036568 287.746088 490.036568 289.475 
C 490.036568 291.203913 490.723472 292.862247 491.945998 294.084773 
C 493.168524 295.307299 494.826858 295.994203 496.55577 295.994203 
z
" clip-path="url(#p9a214d14f0)" style="fill: #72b7b2; fill-opacity: 0.95; stroke: #72b7b2; stroke-opacity: 0.95"/>
    <path d="M 600.207232 374.895044 
C 602.174031 374.895044 604.06054 374.113626 605.451277 372.72289 
C 606.842014 371.332153 607.623431 369.445644 607.623431 367.478845 
C 607.623431 365.512047 606.842014 363.625538 605.451277 362.234801 
C 604.06054 360.844064 602.174031 360.062647 600.207232 360.062647 
C 598.240434 360.062647 596.353925 360.844064 594.963188 362.234801 
C 593.572451 363.625538 592.791034 365.512047 592.791034 367.478845 
C 592.791034 369.445644 593.572451 371.332153 594.963188 372.72289 
C 596.353925 374.113626 598.240434 374.895044 600.207232 374.895044 
z
" clip-path="url(#p9a214d14f0)" style="fill: #9e9e9e; fill-opacity: 0.95; stroke: #9e9e9e; stroke-opacity: 0.95"/>
    <path d="M 601.785901 395.982182 
C 603.7527 395.982182 605.639208 395.200764 607.029945 393.810027 
C 608.420682 392.419291 609.202099 390.532782 609.202099 388.565983 
C 609.202099 386.599184 608.420682 384.712676 607.029945 383.321939 
C 605.639208 381.931202 603.7527 381.149785 601.785901 381.149785 
C 599.819102 381.149785 597.932593 381.931202 596.541857 383.321939 
C 595.15112 384.712676 594.369702 386.599184 594.369702 388.565983 
C 594.369702 390.532782 595.15112 392.419291 596.541857 393.810027 
C 597.932593 395.200764 599.819102 395.982182 601.785901 395.982182 
z
" clip-path="url(#p9a214d14f0)" style="fill: #9e9e9e; fill-opacity: 0.95; stroke: #9e9e9e; stroke-opacity: 0.95"/>
    <path d="M 538.120592 433.865351 
C 540.087391 433.865351 541.973899 433.083933 543.364636 431.693196 
C 544.755373 430.30246 545.53679 428.415951 545.53679 426.449152 
C 545.53679 424.482353 544.755373 422.595845 543.364636 421.205108 
C 541.973899 419.814371 540.087391 419.032954 538.120592 419.032954 
C 536.153793 419.032954 534.267284 419.814371 532.876548 421.205108 
C 531.485811 422.595845 530.704393 424.482353 530.704393 426.449152 
C 530.704393 428.415951 531.485811 430.30246 532.876548 431.693196 
C 534.267284 433.083933 536.153793 433.865351 538.120592 433.865351 
z
" clip-path="url(#p9a214d14f0)" style="fill: #9e9e9e; fill-opacity: 0.95; stroke: #9e9e9e; stroke-opacity: 0.95"/>
    <path d="M 527.085033 416.576385 
C 529.051832 416.576385 530.938341 415.794968 532.329078 414.404231 
C 533.719814 413.013494 534.501232 411.126986 534.501232 409.160187 
C 534.501232 407.193388 533.719814 405.306879 532.329078 403.916143 
C 530.938341 402.525406 529.051832 401.743988 527.085033 401.743988 
C 525.118235 401.743988 523.231726 402.525406 521.840989 403.916143 
C 520.450252 405.306879 519.668835 407.193388 519.668835 409.160187 
C 519.668835 411.126986 520.450252 413.013494 521.840989 414.404231 
C 523.231726 415.794968 525.118235 416.576385 527.085033 416.576385 
z
" clip-path="url(#p9a214d14f0)" style="fill: #9e9e9e; fill-opacity: 0.95; stroke: #9e9e9e; stroke-opacity: 0.95"/>
    <path d="M 594.632586 416.305787 
C 596.599385 416.305787 598.485893 415.52437 599.87663 414.133633 
C 601.267367 412.742896 602.048784 410.856387 602.048784 408.889589 
C 602.048784 406.92279 601.267367 405.036281 599.87663 403.645544 
C 598.485893 402.254808 596.599385 401.47339 594.632586 401.47339 
C 592.665787 401.47339 590.779279 402.254808 589.388542 403.645544 
C 587.997805 405.036281 587.216387 406.92279 587.216387 408.889589 
C 587.216387 410.856387 587.997805 412.742896 589.388542 414.133633 
C 590.779279 415.52437 592.665787 416.305787 594.632586 416.305787 
z
" clip-path="url(#p9a214d14f0)" style="fill: #9e9e9e; fill-opacity: 0.95; stroke: #9e9e9e; stroke-opacity: 0.95"/>
    <path d="M 585.783818 432.300593 
C 587.750617 432.300593 589.637126 431.519176 591.027862 430.128439 
C 592.418599 428.737702 593.200017 426.851194 593.200017 424.884395 
C 593.200017 422.917596 592.418599 421.031087 591.027862 419.64035 
C 589.637126 418.249614 587.750617 417.468196 585.783818 417.468196 
C 583.817019 417.468196 581.930511 418.249614 580.539774 419.64035 
C 579.149037 421.031087 578.36762 422.917596 578.36762 424.884395 
C 578.36762 426.851194 579.149037 428.737702 580.539774 430.128439 
C 581.930511 431.519176 583.817019 432.300593 585.783818 432.300593 
z
" clip-path="url(#p9a214d14f0)" style="fill: #9e9e9e; fill-opacity: 0.95; stroke: #9e9e9e; stroke-opacity: 0.95"/>
    <path d="M 562.218449 434.374631 
C 564.185248 434.374631 566.071757 433.593213 567.462494 432.202477 
C 568.85323 430.81174 569.634648 428.925231 569.634648 426.958432 
C 569.634648 424.991634 568.85323 423.105125 567.462494 421.714388 
C 566.071757 420.323651 564.185248 419.542234 562.218449 419.542234 
C 560.25165 419.542234 558.365142 420.323651 556.974405 421.714388 
C 555.583668 423.105125 554.802251 424.991634 554.802251 426.958432 
C 554.802251 428.925231 555.583668 430.81174 556.974405 432.202477 
C 558.365142 433.593213 560.25165 434.374631 562.218449 434.374631 
z
" clip-path="url(#p9a214d14f0)" style="fill: #9e9e9e; fill-opacity: 0.95; stroke: #9e9e9e; stroke-opacity: 0.95"/>
    <path d="M 362.48802 355.252657 
C 364.454819 355.252657 366.341328 354.47124 367.732064 353.080503 
C 369.122801 351.689766 369.904219 349.803258 369.904219 347.836459 
C 369.904219 345.86966 369.122801 343.983151 367.732064 342.592415 
C 366.341328 341.201678 364.454819 340.42026 362.48802 340.42026 
C 360.521221 340.42026 358.634713 341.201678 357.243976 342.592415 
C 355.853239 343.983151 355.071822 345.86966 355.071822 347.836459 
C 355.071822 349.803258 355.853239 351.689766 357.243976 353.080503 
C 358.634713 354.47124 360.521221 355.252657 362.48802 355.252657 
z
" clip-path="url(#p9a214d14f0)" style="fill: #9e9e9e; fill-opacity: 0.95; stroke: #9e9e9e; stroke-opacity: 0.95"/>
    <path d="M 362.651243 374.415582 
C 364.618042 374.415582 366.50455 373.634164 367.895287 372.243427 
C 369.286024 370.85269 370.067441 368.966182 370.067441 366.999383 
C 370.067441 365.032584 369.286024 363.146076 367.895287 361.755339 
C 366.50455 360.364602 364.618042 359.583185 362.651243 359.583185 
C 360.684444 359.583185 358.797935 360.364602 357.407198 361.755339 
C 356.016462 363.146076 355.235044 365.032584 355.235044 366.999383 
C 355.235044 368.966182 356.016462 370.85269 357.407198 372.243427 
C 358.797935 373.634164 360.684444 374.415582 362.651243 374.415582 
z
" clip-path="url(#p9a214d14f0)" style="fill: #9e9e9e; fill-opacity: 0.95; stroke: #9e9e9e; stroke-opacity: 0.95"/>
    <path d="M 376.963584 389.916254 
C 378.930383 389.916254 380.816891 389.134836 382.207628 387.7441 
C 383.598365 386.353363 384.379782 384.466854 384.379782 382.500055 
C 384.379782 380.533257 383.598365 378.646748 382.207628 377.256011 
C 380.816891 375.865274 378.930383 375.083857 376.963584 375.083857 
C 374.996785 375.083857 373.110276 375.865274 371.71954 377.256011 
C 370.328803 378.646748 369.547385 380.533257 369.547385 382.500055 
C 369.547385 384.466854 370.328803 386.353363 371.71954 387.7441 
C 373.110276 389.134836 374.996785 389.916254 376.963584 389.916254 
z
" clip-path="url(#p9a214d14f0)" style="fill: #9e9e9e; fill-opacity: 0.95; stroke: #9e9e9e; stroke-opacity: 0.95"/>
    <path d="M 401.249144 397.338926 
C 403.215943 397.338926 405.102452 396.557508 406.493189 395.166772 
C 407.883925 393.776035 408.665343 391.889526 408.665343 389.922727 
C 408.665343 387.955929 407.883925 386.06942 406.493189 384.678683 
C 405.102452 383.287946 403.215943 382.506529 401.249144 382.506529 
C 399.282346 382.506529 397.395837 383.287946 396.0051 384.678683 
C 394.614363 386.06942 393.832946 387.955929 393.832946 389.922727 
C 393.832946 391.889526 394.614363 393.776035 396.0051 395.166772 
C 397.395837 396.557508 399.282346 397.338926 401.249144 397.338926 
z
" clip-path="url(#p9a214d14f0)" style="fill: #9e9e9e; fill-opacity: 0.95; stroke: #9e9e9e; stroke-opacity: 0.95"/>
    <path d="M 444.805853 292.729386 
C 446.772651 292.729386 448.65916 291.947968 450.049897 290.557232 
C 451.440634 289.166495 452.222051 287.279986 452.222051 285.313187 
C 452.222051 283.346389 451.440634 281.45988 450.049897 280.069143 
C 448.65916 278.678406 446.772651 277.896989 444.805853 277.896989 
C 442.839054 277.896989 440.952545 278.678406 439.561808 280.069143 
C 438.171072 281.45988 437.389654 283.346389 437.389654 285.313187 
C 437.389654 287.279986 438.171072 289.166495 439.561808 290.557232 
C 440.952545 291.947968 442.839054 292.729386 444.805853 292.729386 
z
" clip-path="url(#p9a214d14f0)" style="fill: #9e9e9e; fill-opacity: 0.95; stroke: #9e9e9e; stroke-opacity: 0.95"/>
    <path d="M 931.328937 131.995151 
C 933.295736 131.995151 935.182244 131.213733 936.572981 129.822997 
C 937.963718 128.43226 938.745135 126.545751 938.745135 124.578952 
C 938.745135 122.612154 937.963718 120.725645 936.572981 119.334908 
C 935.182244 117.944171 933.295736 117.162754 931.328937 117.162754 
C 929.362138 117.162754 927.475629 117.944171 926.084892 119.334908 
C 924.694156 120.725645 923.912738 122.612154 923.912738 124.578952 
C 923.912738 126.545751 924.694156 128.43226 926.084892 129.822997 
C 927.475629 131.213733 929.362138 131.995151 931.328937 131.995151 
z
" clip-path="url(#p9a214d14f0)" style="fill: #9e9e9e; fill-opacity: 0.95; stroke: #9e9e9e; stroke-opacity: 0.95"/>
    <path d="M 352.295636 681.727051 
C 354.262435 681.727051 356.148943 680.945633 357.53968 679.554897 
C 358.930417 678.16416 359.711834 676.277651 359.711834 674.310852 
C 359.711834 672.344053 358.930417 670.457545 357.53968 669.066808 
C 356.148943 667.676071 354.262435 666.894654 352.295636 666.894654 
C 350.328837 666.894654 348.442328 667.676071 347.051591 669.066808 
C 345.660855 670.457545 344.879437 672.344053 344.879437 674.310852 
C 344.879437 676.277651 345.660855 678.16416 347.051591 679.554897 
C 348.442328 680.945633 350.328837 681.727051 352.295636 681.727051 
z
" clip-path="url(#p9a214d14f0)" style="fill: #9e9e9e; fill-opacity: 0.95; stroke: #9e9e9e; stroke-opacity: 0.95"/>
    <path d="M 948.763636 391.080057 
C 950.730435 391.080057 952.616944 390.29864 954.007681 388.907903 
C 955.398417 387.517166 956.179835 385.630658 956.179835 383.663859 
C 956.179835 381.69706 955.398417 379.810551 954.007681 378.419815 
C 952.616944 377.029078 950.730435 376.24766 948.763636 376.24766 
C 946.796838 376.24766 944.910329 377.029078 943.519592 378.419815 
C 942.128855 379.810551 941.347438 381.69706 941.347438 383.663859 
C 941.347438 385.630658 942.128855 387.517166 943.519592 388.907903 
C 944.910329 390.29864 946.796838 391.080057 948.763636 391.080057 
z
" clip-path="url(#p9a214d14f0)" style="fill: #9e9e9e; fill-opacity: 0.95; stroke: #9e9e9e; stroke-opacity: 0.95"/>
    <path d="M 52.036364 398.1549 
C 54.003162 398.1549 55.889671 397.373482 57.280408 395.982745 
C 58.671145 394.592009 59.452562 392.7055 59.452562 390.738701 
C 59.452562 388.771902 58.671145 386.885394 57.280408 385.494657 
C 55.889671 384.10392 54.003162 383.322503 52.036364 383.322503 
C 50.069565 383.322503 48.183056 384.10392 46.792319 385.494657 
C 45.401583 386.885394 44.620165 388.771902 44.620165 390.738701 
C 44.620165 392.7055 45.401583 394.592009 46.792319 395.982745 
C 48.183056 397.373482 50.069565 398.1549 52.036364 398.1549 
z
" clip-path="url(#p9a214d14f0)" style="fill: #9e9e9e; fill-opacity: 0.95; stroke: #9e9e9e; stroke-opacity: 0.95"/>
    <path d="M 107.277457 111.749867 
C 109.244255 111.749867 111.130764 110.968449 112.521501 109.577712 
C 113.912238 108.186976 114.693655 106.300467 114.693655 104.333668 
C 114.693655 102.366869 113.912238 100.480361 112.521501 99.089624 
C 111.130764 97.698887 109.244255 96.91747 107.277457 96.91747 
C 105.310658 96.91747 103.424149 97.698887 102.033412 99.089624 
C 100.642676 100.480361 99.861258 102.366869 99.861258 104.333668 
C 99.861258 106.300467 100.642676 108.186976 102.033412 109.577712 
C 103.424149 110.968449 105.310658 111.749867 107.277457 111.749867 
z
" clip-path="url(#p9a214d14f0)" style="fill: #9e9e9e; fill-opacity: 0.95; stroke: #9e9e9e; stroke-opacity: 0.95"/>
    <path d="M 266.416756 60.781596 
C 268.383554 60.781596 270.270063 60.000179 271.6608 58.609442 
C 273.051537 57.218705 273.832954 55.332197 273.832954 53.365398 
C 273.832954 51.398599 273.051537 49.51209 271.6608 48.121353 
C 270.270063 46.730617 268.383554 45.949199 266.416756 45.949199 
C 264.449957 45.949199 262.563448 46.730617 261.172711 48.121353 
C 259.781975 49.51209 259.000557 51.398599 259.000557 53.365398 
C 259.000557 55.332197 259.781975 57.218705 261.172711 58.609442 
C 262.563448 60.000179 264.449957 60.781596 266.416756 60.781596 
z
" clip-path="url(#p9a214d14f0)" style="fill: #9e9e9e; fill-opacity: 0.95; stroke: #9e9e9e; stroke-opacity: 0.95"/>
    <path d="M 867.51353 333.582969 
C 869.480329 333.582969 871.366838 332.801551 872.757575 331.410815 
C 874.148311 330.020078 874.929729 328.133569 874.929729 326.16677 
C 874.929729 324.199971 874.148311 322.313463 872.757575 320.922726 
C 871.366838 319.531989 869.480329 318.750572 867.51353 318.750572 
C 865.546732 318.750572 863.660223 319.531989 862.269486 320.922726 
C 860.878749 322.313463 860.097332 324.199971 860.097332 326.16677 
C 860.097332 328.133569 860.878749 330.020078 862.269486 331.410815 
C 863.660223 332.801551 865.546732 333.582969 867.51353 333.582969 
z
" clip-path="url(#p9a214d14f0)" style="fill: #9e9e9e; fill-opacity: 0.95; stroke: #9e9e9e; stroke-opacity: 0.95"/>
    <path d="M 512.499389 277.828463 
C 514.228301 277.828463 515.886635 277.141559 517.109161 275.919033 
C 518.331687 274.696507 519.018591 273.038174 519.018591 271.309261 
C 519.018591 269.580348 518.331687 267.922015 517.109161 266.699489 
C 515.886635 265.476963 514.228301 264.790059 512.499389 264.790059 
C 510.770476 264.790059 509.112142 265.476963 507.889616 266.699489 
C 506.667091 267.922015 505.980186 269.580348 505.980186 271.309261 
C 505.980186 273.038174 506.667091 274.696507 507.889616 275.919033 
C 509.112142 277.141559 510.770476 277.828463 512.499389 277.828463 
z
" clip-path="url(#p9a214d14f0)" style="fill: #72b7b2; fill-opacity: 0.95; stroke: #72b7b2; stroke-opacity: 0.95"/>
    <path d="M 459.290339 328.098273 
C 461.019252 328.098273 462.677586 327.411369 463.900112 326.188843 
C 465.122637 324.966317 465.809542 323.307984 465.809542 321.579071 
C 465.809542 319.850158 465.122637 318.191825 463.900112 316.969299 
C 462.677586 315.746773 461.019252 315.059869 459.290339 315.059869 
C 457.561427 315.059869 455.903093 315.746773 454.680567 316.969299 
C 453.458041 318.191825 452.771137 319.850158 452.771137 321.579071 
C 452.771137 323.307984 453.458041 324.966317 454.680567 326.188843 
C 455.903093 327.411369 457.561427 328.098273 459.290339 328.098273 
z
" clip-path="url(#p9a214d14f0)" style="fill: #72b7b2; fill-opacity: 0.95; stroke: #72b7b2; stroke-opacity: 0.95"/>
    <path d="M 527.880235 266.135639 
C 529.609148 266.135639 531.267482 265.448735 532.490007 264.226209 
C 533.712533 263.003683 534.399438 261.34535 534.399438 259.616437 
C 534.399438 257.887524 533.712533 256.229191 532.490007 255.006665 
C 531.267482 253.784139 529.609148 253.097235 527.880235 253.097235 
C 526.151323 253.097235 524.492989 253.784139 523.270463 255.006665 
C 522.047937 256.229191 521.361033 257.887524 521.361033 259.616437 
C 521.361033 261.34535 522.047937 263.003683 523.270463 264.226209 
C 524.492989 265.448735 526.151323 266.135639 527.880235 266.135639 
z
" clip-path="url(#p9a214d14f0)" style="fill: #72b7b2; fill-opacity: 0.95; stroke: #72b7b2; stroke-opacity: 0.95"/>
    <path d="M 543.75604 292.554626 
C 545.484952 292.554626 547.143286 291.867722 548.365812 290.645196 
C 549.588338 289.42267 550.275242 287.764336 550.275242 286.035424 
C 550.275242 284.306511 549.588338 282.648177 548.365812 281.425651 
C 547.143286 280.203125 545.484952 279.516221 543.75604 279.516221 
C 542.027127 279.516221 540.368793 280.203125 539.146267 281.425651 
C 537.923742 282.648177 537.236837 284.306511 537.236837 286.035424 
C 537.236837 287.764336 537.923742 289.42267 539.146267 290.645196 
C 540.368793 291.867722 542.027127 292.554626 543.75604 292.554626 
z
" clip-path="url(#p9a214d14f0)" style="fill: #72b7b2; fill-opacity: 0.95; stroke: #72b7b2; stroke-opacity: 0.95"/>
    <path d="M 502.777512 262.01388 
C 504.506424 262.01388 506.164758 261.326976 507.387284 260.10445 
C 508.60981 258.881924 509.296714 257.22359 509.296714 255.494678 
C 509.296714 253.765765 508.60981 252.107431 507.387284 250.884905 
C 506.164758 249.662379 504.506424 248.975475 502.777512 248.975475 
C 501.048599 248.975475 499.390265 249.662379 498.167739 250.884905 
C 496.945213 252.107431 496.258309 253.765765 496.258309 255.494678 
C 496.258309 257.22359 496.945213 258.881924 498.167739 260.10445 
C 499.390265 261.326976 501.048599 262.01388 502.777512 262.01388 
z
" clip-path="url(#p9a214d14f0)" style="fill: #72b7b2; fill-opacity: 0.95; stroke: #72b7b2; stroke-opacity: 0.95"/>
    <path d="M 395.603505 327.340671 
C 397.332418 327.340671 398.990751 326.653766 400.213277 325.43124 
C 401.435803 324.208714 402.122707 322.550381 402.122707 320.821468 
C 402.122707 319.092555 401.435803 317.434222 400.213277 316.211696 
C 398.990751 314.98917 397.332418 314.302266 395.603505 314.302266 
C 393.874592 314.302266 392.216259 314.98917 390.993733 316.211696 
C 389.771207 317.434222 389.084303 319.092555 389.084303 320.821468 
C 389.084303 322.550381 389.771207 324.208714 390.993733 325.43124 
C 392.216259 326.653766 393.874592 327.340671 395.603505 327.340671 
z
" clip-path="url(#p9a214d14f0)" style="fill: #72b7b2; fill-opacity: 0.95; stroke: #72b7b2; stroke-opacity: 0.95"/>
    <path d="M 629.32825 405.194121 
C 631.057163 405.194121 632.715496 404.507216 633.938022 403.284691 
C 635.160548 402.062165 635.847452 400.403831 635.847452 398.674918 
C 635.847452 396.946006 635.160548 395.287672 633.938022 394.065146 
C 632.715496 392.84262 631.057163 392.155716 629.32825 392.155716 
C 627.599337 392.155716 625.941004 392.84262 624.718478 394.065146 
C 623.495952 395.287672 622.809048 396.946006 622.809048 398.674918 
C 622.809048 400.403831 623.495952 402.062165 624.718478 403.284691 
C 625.941004 404.507216 627.599337 405.194121 629.32825 405.194121 
z
" clip-path="url(#p9a214d14f0)" style="fill: #72b7b2; fill-opacity: 0.95; stroke: #72b7b2; stroke-opacity: 0.95"/>
    <path d="M 555.97232 257.569106 
C 557.701232 257.569106 559.359566 256.882201 560.582092 255.659675 
C 561.804618 254.43715 562.491522 252.778816 562.491522 251.049903 
C 562.491522 249.320991 561.804618 247.662657 560.582092 246.440131 
C 559.359566 245.217605 557.701232 244.530701 555.97232 244.530701 
C 554.243407 244.530701 552.585073 245.217605 551.362547 246.440131 
C 550.140021 247.662657 549.453117 249.320991 549.453117 251.049903 
C 549.453117 252.778816 550.140021 254.43715 551.362547 255.659675 
C 552.585073 256.882201 554.243407 257.569106 555.97232 257.569106 
z
" clip-path="url(#p9a214d14f0)" style="fill: #72b7b2; fill-opacity: 0.95; stroke: #72b7b2; stroke-opacity: 0.95"/>
    <path d="M 482.159294 268.214809 
C 483.888207 268.214809 485.54654 267.527905 486.769066 266.305379 
C 487.991592 265.082853 488.678496 263.424519 488.678496 261.695607 
C 488.678496 259.966694 487.991592 258.30836 486.769066 257.085834 
C 485.54654 255.863308 483.888207 255.176404 482.159294 255.176404 
C 480.430381 255.176404 478.772048 255.863308 477.549522 257.085834 
C 476.326996 258.30836 475.640092 259.966694 475.640092 261.695607 
C 475.640092 263.424519 476.326996 265.082853 477.549522 266.305379 
C 478.772048 267.527905 480.430381 268.214809 482.159294 268.214809 
z
" clip-path="url(#p9a214d14f0)" style="fill: #72b7b2; fill-opacity: 0.95; stroke: #72b7b2; stroke-opacity: 0.95"/>
    <path d="M 475.894992 282.802395 
C 477.623904 282.802395 479.282238 282.11549 480.504764 280.892965 
C 481.72729 279.670439 482.414194 278.012105 482.414194 276.283192 
C 482.414194 274.55428 481.72729 272.895946 480.504764 271.67342 
C 479.282238 270.450894 477.623904 269.76399 475.894992 269.76399 
C 474.166079 269.76399 472.507745 270.450894 471.285219 271.67342 
C 470.062693 272.895946 469.375789 274.55428 469.375789 276.283192 
C 469.375789 278.012105 470.062693 279.670439 471.285219 280.892965 
C 472.507745 282.11549 474.166079 282.802395 475.894992 282.802395 
z
" clip-path="url(#p9a214d14f0)" style="fill: #72b7b2; fill-opacity: 0.95; stroke: #72b7b2; stroke-opacity: 0.95"/>
    <path d="M 579.574286 218.106638 
C 581.541084 218.106638 583.427593 217.32522 584.81833 215.934483 
C 586.209067 214.543747 586.990484 212.657238 586.990484 210.690439 
C 586.990484 208.72364 586.209067 206.837132 584.81833 205.446395 
C 583.427593 204.055658 581.541084 203.274241 579.574286 203.274241 
C 577.607487 203.274241 575.720978 204.055658 574.330241 205.446395 
C 572.939505 206.837132 572.158087 208.72364 572.158087 210.690439 
C 572.158087 212.657238 572.939505 214.543747 574.330241 215.934483 
C 575.720978 217.32522 577.607487 218.106638 579.574286 218.106638 
z
" clip-path="url(#p9a214d14f0)" style="fill: #9e9e9e; fill-opacity: 0.95; stroke: #9e9e9e; stroke-opacity: 0.95"/>
    <path d="M 604.83984 235.361236 
C 606.806638 235.361236 608.693147 234.579819 610.083884 233.189082 
C 611.474621 231.798345 612.256038 229.911837 612.256038 227.945038 
C 612.256038 225.978239 611.474621 224.09173 610.083884 222.700994 
C 608.693147 221.310257 606.806638 220.528839 604.83984 220.528839 
C 602.873041 220.528839 600.986532 221.310257 599.595795 222.700994 
C 598.205059 224.09173 597.423641 225.978239 597.423641 227.945038 
C 597.423641 229.911837 598.205059 231.798345 599.595795 233.189082 
C 600.986532 234.579819 602.873041 235.361236 604.83984 235.361236 
z
" clip-path="url(#p9a214d14f0)" style="fill: #9e9e9e; fill-opacity: 0.95; stroke: #9e9e9e; stroke-opacity: 0.95"/>
    <path d="M 341.767194 311.981444 
C 343.496107 311.981444 345.154441 311.29454 346.376967 310.072014 
C 347.599492 308.849488 348.286397 307.191154 348.286397 305.462242 
C 348.286397 303.733329 347.599492 302.074995 346.376967 300.852469 
C 345.154441 299.629943 343.496107 298.943039 341.767194 298.943039 
C 340.038282 298.943039 338.379948 299.629943 337.157422 300.852469 
C 335.934896 302.074995 335.247992 303.733329 335.247992 305.462242 
C 335.247992 307.191154 335.934896 308.849488 337.157422 310.072014 
C 338.379948 311.29454 340.038282 311.981444 341.767194 311.981444 
z
" clip-path="url(#p9a214d14f0)" style="fill: #72b7b2; fill-opacity: 0.95; stroke: #72b7b2; stroke-opacity: 0.95"/>
    <path d="M 757.369429 439.269983 
C 759.098342 439.269983 760.756676 438.583079 761.979202 437.360553 
C 763.201728 436.138027 763.888632 434.479694 763.888632 432.750781 
C 763.888632 431.021868 763.201728 429.363535 761.979202 428.141009 
C 760.756676 426.918483 759.098342 426.231579 757.369429 426.231579 
C 755.640517 426.231579 753.982183 426.918483 752.759657 428.141009 
C 751.537131 429.363535 750.850227 431.021868 750.850227 432.750781 
C 750.850227 434.479694 751.537131 436.138027 752.759657 437.360553 
C 753.982183 438.583079 755.640517 439.269983 757.369429 439.269983 
z
" clip-path="url(#p9a214d14f0)" style="fill: #72b7b2; fill-opacity: 0.95; stroke: #72b7b2; stroke-opacity: 0.95"/>
   </g>
   <g id="text_1">
    <g clip-path="url(#p9a214d14f0)">
     <!-- "PERIPHERAL SELECT" -->
     <g transform="translate(561.321139 369.410408) scale(0.07 -0.07)">
      <defs>
       <path id="DejaVuSans-22" d="M 1147 4666 
L 1147 2931 
L 616 2931 
L 616 4666 
L 1147 4666 
z
M 2328 4666 
L 2328 2931 
L 1797 2931 
L 1797 4666 
L 2328 4666 
z
" transform="scale(0.015625)"/>
       <path id="DejaVuSans-50" d="M 1259 4147 
L 1259 2394 
L 2053 2394 
Q 2494 2394 2734 2622 
Q 2975 2850 2975 3272 
Q 2975 3691 2734 3919 
Q 2494 4147 2053 4147 
L 1259 4147 
z
M 628 4666 
L 2053 4666 
Q 2838 4666 3239 4311 
Q 3641 3956 3641 3272 
Q 3641 2581 3239 2228 
Q 2838 1875 2053 1875 
L 1259 1875 
L 1259 0 
L 628 0 
L 628 4666 
z
" transform="scale(0.015625)"/>
       <path id="DejaVuSans-45" d="M 628 4666 
L 3578 4666 
L 3578 4134 
L 1259 4134 
L 1259 2753 
L 3481 2753 
L 3481 2222 
L 1259 2222 
L 1259 531 
L 3634 531 
L 3634 0 
L 628 0 
L 628 4666 
z
" transform="scale(0.015625)"/>
       <path id="DejaVuSans-52" d="M 2841 2188 
Q 3044 2119 3236 1894 
Q 3428 1669 3622 1275 
L 4263 0 
L 3584 0 
L 2988 1197 
Q 2756 1666 2539 1819 
Q 2322 1972 1947 1972 
L 1259 1972 
L 1259 0 
L 628 0 
L 628 4666 
L 2053 4666 
Q 2853 4666 3247 4331 
Q 3641 3997 3641 3322 
Q 3641 2881 3436 2590 
Q 3231 2300 2841 2188 
z
M 1259 4147 
L 1259 2491 
L 2053 2491 
Q 2509 2491 2742 2702 
Q 2975 2913 2975 3322 
Q 2975 3731 2742 3939 
Q 2509 4147 2053 4147 
L 1259 4147 
z
" transform="scale(0.015625)"/>
       <path id="DejaVuSans-49" d="M 628 4666 
L 1259 4666 
L 1259 0 
L 628 0 
L 628 4666 
z
" transform="scale(0.015625)"/>
       <path id="DejaVuSans-48" d="M 628 4666 
L 1259 4666 
L 1259 2753 
L 3553 2753 
L 3553 4666 
L 4184 4666 
L 4184 0 
L 3553 0 
L 3553 2222 
L 1259 2222 
L 1259 0 
L 628 0 
L 628 4666 
z
" transform="scale(0.015625)"/>
       <path id="DejaVuSans-41" d="M 2188 4044 
L 1331 1722 
L 3047 1722 
L 2188 4044 
z
M 1831 4666 
L 2547 4666 
L 4325 0 
L 3669 0 
L 3244 1197 
L 1141 1197 
L 716 0 
L 50 0 
L 1831 4666 
z
" transform="scale(0.015625)"/>
       <path id="DejaVuSans-4c" d="M 628 4666 
L 1259 4666 
L 1259 531 
L 3531 531 
L 3531 0 
L 628 0 
L 628 4666 
z
" transform="scale(0.015625)"/>
       <path id="DejaVuSans-20" transform="scale(0.015625)"/>
       <path id="DejaVuSans-53" d="M 3425 4513 
L 3425 3897 
Q 3066 4069 2747 4153 
Q 2428 4238 2131 4238 
Q 1616 4238 1336 4038 
Q 1056 3838 1056 3469 
Q 1056 3159 1242 3001 
Q 1428 2844 1947 2747 
L 2328 2669 
Q 3034 2534 3370 2195 
Q 3706 1856 3706 1288 
Q 3706 609 3251 259 
Q 2797 -91 1919 -91 
Q 1588 -91 1214 -16 
Q 841 59 441 206 
L 441 856 
Q 825 641 1194 531 
Q 1563 422 1919 422 
Q 2459 422 2753 634 
Q 3047 847 3047 1241 
Q 3047 1584 2836 1778 
Q 2625 1972 2144 2069 
L 1759 2144 
Q 1053 2284 737 2584 
Q 422 2884 422 3419 
Q 422 4038 858 4394 
Q 1294 4750 2059 4750 
Q 2388 4750 2728 4690 
Q 3069 4631 3425 4513 
z
" transform="scale(0.015625)"/>
       <path id="DejaVuSans-43" d="M 4122 4306 
L 4122 3641 
Q 3803 3938 3442 4084 
Q 3081 4231 2675 4231 
Q 1875 4231 1450 3742 
Q 1025 3253 1025 2328 
Q 1025 1406 1450 917 
Q 1875 428 2675 428 
Q 3081 428 3442 575 
Q 3803 722 4122 1019 
L 4122 359 
Q 3791 134 3420 21 
Q 3050 -91 2638 -91 
Q 1578 -91 968 557 
Q 359 1206 359 2328 
Q 359 3453 968 4101 
Q 1578 4750 2638 4750 
Q 3056 4750 3426 4639 
Q 3797 4528 4122 4306 
z
" transform="scale(0.015625)"/>
       <path id="DejaVuSans-54" d="M -19 4666 
L 3928 4666 
L 3928 4134 
L 2272 4134 
L 2272 0 
L 1638 0 
L 1638 4134 
L -19 4134 
L -19 4666 
z
" transform="scale(0.015625)"/>
      </defs>
      <use xlink:href="#DejaVuSans-22"/>
      <use xlink:href="#DejaVuSans-50" transform="translate(45.996094 0)"/>
      <use xlink:href="#DejaVuSans-45" transform="translate(106.298828 0)"/>
      <use xlink:href="#DejaVuSans-52" transform="translate(169.482422 0)"/>
      <use xlink:href="#DejaVuSans-49" transform="translate(238.964844 0)"/>
      <use xlink:href="#DejaVuSans-50" transform="translate(268.457031 0)"/>
      <use xlink:href="#DejaVuSans-48" transform="translate(328.759766 0)"/>
      <use xlink:href="#DejaVuSans-45" transform="translate(403.955078 0)"/>
      <use xlink:href="#DejaVuSans-52" transform="translate(467.138672 0)"/>
      <use xlink:href="#DejaVuSans-41" transform="translate(532.621094 0)"/>
      <use xlink:href="#DejaVuSans-4c" transform="translate(601.029297 0)"/>
      <use xlink:href="#DejaVuSans-20" transform="translate(656.742188 0)"/>
      <use xlink:href="#DejaVuSans-53" transform="translate(688.529297 0)"/>
      <use xlink:href="#DejaVuSans-45" transform="translate(752.005859 0)"/>
      <use xlink:href="#DejaVuSans-4c" transform="translate(815.189453 0)"/>
      <use xlink:href="#DejaVuSans-45" transform="translate(870.902344 0)"/>
      <use xlink:href="#DejaVuSans-43" transform="translate(934.085938 0)"/>
      <use xlink:href="#DejaVuSans-54" transform="translate(1003.910156 0)"/>
      <use xlink:href="#DejaVuSans-22" transform="translate(1064.994141 0)"/>
     </g>
    </g>
   </g>
   <g id="text_2">
    <g clip-path="url(#p9a214d14f0)">
     <!-- "TRANSFER ENABLE" -->
     <g transform="translate(565.345432 390.497546) scale(0.07 -0.07)">
      <defs>
       <path id="DejaVuSans-4e" d="M 628 4666 
L 1478 4666 
L 3547 763 
L 3547 4666 
L 4159 4666 
L 4159 0 
L 3309 0 
L 1241 3903 
L 1241 0 
L 628 0 
L 628 4666 
z
" transform="scale(0.015625)"/>
       <path id="DejaVuSans-46" d="M 628 4666 
L 3309 4666 
L 3309 4134 
L 1259 4134 
L 1259 2759 
L 3109 2759 
L 3109 2228 
L 1259 2228 
L 1259 0 
L 628 0 
L 628 4666 
z
" transform="scale(0.015625)"/>
       <path id="DejaVuSans-42" d="M 1259 2228 
L 1259 519 
L 2272 519 
Q 2781 519 3026 730 
Q 3272 941 3272 1375 
Q 3272 1813 3026 2020 
Q 2781 2228 2272 2228 
L 1259 2228 
z
M 1259 4147 
L 1259 2741 
L 2194 2741 
Q 2656 2741 2882 2914 
Q 3109 3088 3109 3444 
Q 3109 3797 2882 3972 
Q 2656 4147 2194 4147 
L 1259 4147 
z
M 628 4666 
L 2241 4666 
Q 2963 4666 3353 4366 
Q 3744 4066 3744 3513 
Q 3744 3084 3544 2831 
Q 3344 2578 2956 2516 
Q 3422 2416 3680 2098 
Q 3938 1781 3938 1306 
Q 3938 681 3513 340 
Q 3088 0 2303 0 
L 628 0 
L 628 4666 
z
" transform="scale(0.015625)"/>
      </defs>
      <use xlink:href="#DejaVuSans-22"/>
      <use xlink:href="#DejaVuSans-54" transform="translate(45.996094 0)"/>
      <use xlink:href="#DejaVuSans-52" transform="translate(107.080078 0)"/>
      <use xlink:href="#DejaVuSans-41" transform="translate(172.5625 0)"/>
      <use xlink:href="#DejaVuSans-4e" transform="translate(240.970703 0)"/>
      <use xlink:href="#DejaVuSans-53" transform="translate(315.775391 0)"/>
      <use xlink:href="#DejaVuSans-46" transform="translate(379.251953 0)"/>
      <use xlink:href="#DejaVuSans-45" transform="translate(436.771484 0)"/>
      <use xlink:href="#DejaVuSans-52" transform="translate(499.955078 0)"/>
      <use xlink:href="#DejaVuSans-20" transform="translate(569.4375 0)"/>
      <use xlink:href="#DejaVuSans-45" transform="translate(601.224609 0)"/>
      <use xlink:href="#DejaVuSans-4e" transform="translate(664.408203 0)"/>
      <use xlink:href="#DejaVuSans-41" transform="translate(739.212891 0)"/>
      <use xlink:href="#DejaVuSans-42" transform="translate(807.621094 0)"/>
      <use xlink:href="#DejaVuSans-4c" transform="translate(876.224609 0)"/>
      <use xlink:href="#DejaVuSans-45" transform="translate(931.9375 0)"/>
      <use xlink:href="#DejaVuSans-22" transform="translate(995.121094 0)"/>
     </g>
    </g>
   </g>
   <g id="text_3">
    <g clip-path="url(#p9a214d14f0)">
     <!-- "WRITE ENABLE" -->
     <g transform="translate(508.726607 428.380715) scale(0.07 -0.07)">
      <defs>
       <path id="DejaVuSans-57" d="M 213 4666 
L 850 4666 
L 1831 722 
L 2809 4666 
L 3519 4666 
L 4500 722 
L 5478 4666 
L 6119 4666 
L 4947 0 
L 4153 0 
L 3169 4050 
L 2175 0 
L 1381 0 
L 213 4666 
z
" transform="scale(0.015625)"/>
      </defs>
      <use xlink:href="#DejaVuSans-22"/>
      <use xlink:href="#DejaVuSans-57" transform="translate(45.996094 0)"/>
      <use xlink:href="#DejaVuSans-52" transform="translate(144.873047 0)"/>
      <use xlink:href="#DejaVuSans-49" transform="translate(214.355469 0)"/>
      <use xlink:href="#DejaVuSans-54" transform="translate(243.847656 0)"/>
      <use xlink:href="#DejaVuSans-45" transform="translate(304.931641 0)"/>
      <use xlink:href="#DejaVuSans-20" transform="translate(368.115234 0)"/>
      <use xlink:href="#DejaVuSans-45" transform="translate(399.902344 0)"/>
      <use xlink:href="#DejaVuSans-4e" transform="translate(463.085938 0)"/>
      <use xlink:href="#DejaVuSans-41" transform="translate(537.890625 0)"/>
      <use xlink:href="#DejaVuSans-42" transform="translate(606.298828 0)"/>
      <use xlink:href="#DejaVuSans-4c" transform="translate(674.902344 0)"/>
      <use xlink:href="#DejaVuSans-45" transform="translate(730.615234 0)"/>
      <use xlink:href="#DejaVuSans-22" transform="translate(793.798828 0)"/>
     </g>
    </g>
   </g>
   <g id="text_4">
    <g clip-path="url(#p9a214d14f0)">
     <!-- "REGISTER ADDRESS" -->
     <g transform="translate(488.489877 411.091749) scale(0.07 -0.07)">
      <defs>
       <path id="DejaVuSans-47" d="M 3809 666 
L 3809 1919 
L 2778 1919 
L 2778 2438 
L 4434 2438 
L 4434 434 
Q 4069 175 3628 42 
Q 3188 -91 2688 -91 
Q 1594 -91 976 548 
Q 359 1188 359 2328 
Q 359 3472 976 4111 
Q 1594 4750 2688 4750 
Q 3144 4750 3555 4637 
Q 3966 4525 4313 4306 
L 4313 3634 
Q 3963 3931 3569 4081 
Q 3175 4231 2741 4231 
Q 1884 4231 1454 3753 
Q 1025 3275 1025 2328 
Q 1025 1384 1454 906 
Q 1884 428 2741 428 
Q 3075 428 3337 486 
Q 3600 544 3809 666 
z
" transform="scale(0.015625)"/>
       <path id="DejaVuSans-44" d="M 1259 4147 
L 1259 519 
L 2022 519 
Q 2988 519 3436 956 
Q 3884 1394 3884 2338 
Q 3884 3275 3436 3711 
Q 2988 4147 2022 4147 
L 1259 4147 
z
M 628 4666 
L 1925 4666 
Q 3281 4666 3915 4102 
Q 4550 3538 4550 2338 
Q 4550 1131 3912 565 
Q 3275 0 1925 0 
L 628 0 
L 628 4666 
z
" transform="scale(0.015625)"/>
      </defs>
      <use xlink:href="#DejaVuSans-22"/>
      <use xlink:href="#DejaVuSans-52" transform="translate(45.996094 0)"/>
      <use xlink:href="#DejaVuSans-45" transform="translate(115.478516 0)"/>
      <use xlink:href="#DejaVuSans-47" transform="translate(178.662109 0)"/>
      <use xlink:href="#DejaVuSans-49" transform="translate(256.152344 0)"/>
      <use xlink:href="#DejaVuSans-53" transform="translate(285.644531 0)"/>
      <use xlink:href="#DejaVuSans-54" transform="translate(349.121094 0)"/>
      <use xlink:href="#DejaVuSans-45" transform="translate(410.205078 0)"/>
      <use xlink:href="#DejaVuSans-52" transform="translate(473.388672 0)"/>
      <use xlink:href="#DejaVuSans-20" transform="translate(542.871094 0)"/>
      <use xlink:href="#DejaVuSans-41" transform="translate(574.658203 0)"/>
      <use xlink:href="#DejaVuSans-44" transform="translate(643.066406 0)"/>
      <use xlink:href="#DejaVuSans-44" transform="translate(720.068359 0)"/>
      <use xlink:href="#DejaVuSans-52" transform="translate(797.070312 0)"/>
      <use xlink:href="#DejaVuSans-45" transform="translate(866.552734 0)"/>
      <use xlink:href="#DejaVuSans-53" transform="translate(929.736328 0)"/>
      <use xlink:href="#DejaVuSans-53" transform="translate(993.212891 0)"/>
      <use xlink:href="#DejaVuSans-22" transform="translate(1056.689453 0)"/>
     </g>
    </g>
   </g>
   <g id="text_5">
    <g clip-path="url(#p9a214d14f0)">
     <!-- "WRITE DATA BUS" -->
     <g transform="translate(561.711258 410.821151) scale(0.07 -0.07)">
      <defs>
       <path id="DejaVuSans-55" d="M 556 4666 
L 1191 4666 
L 1191 1831 
Q 1191 1081 1462 751 
Q 1734 422 2344 422 
Q 2950 422 3222 751 
Q 3494 1081 3494 1831 
L 3494 4666 
L 4128 4666 
L 4128 1753 
Q 4128 841 3676 375 
Q 3225 -91 2344 -91 
Q 1459 -91 1007 375 
Q 556 841 556 1753 
L 556 4666 
z
" transform="scale(0.015625)"/>
      </defs>
      <use xlink:href="#DejaVuSans-22"/>
      <use xlink:href="#DejaVuSans-57" transform="translate(45.996094 0)"/>
      <use xlink:href="#DejaVuSans-52" transform="translate(144.873047 0)"/>
      <use xlink:href="#DejaVuSans-49" transform="translate(214.355469 0)"/>
      <use xlink:href="#DejaVuSans-54" transform="translate(243.847656 0)"/>
      <use xlink:href="#DejaVuSans-45" transform="translate(304.931641 0)"/>
      <use xlink:href="#DejaVuSans-20" transform="translate(368.115234 0)"/>
      <use xlink:href="#DejaVuSans-44" transform="translate(399.902344 0)"/>
      <use xlink:href="#DejaVuSans-41" transform="translate(475.154297 0)"/>
      <use xlink:href="#DejaVuSans-54" transform="translate(535.8125 0)"/>
      <use xlink:href="#DejaVuSans-41" transform="translate(589.146484 0)"/>
      <use xlink:href="#DejaVuSans-20" transform="translate(657.554688 0)"/>
      <use xlink:href="#DejaVuSans-42" transform="translate(689.341797 0)"/>
      <use xlink:href="#DejaVuSans-55" transform="translate(757.945312 0)"/>
      <use xlink:href="#DejaVuSans-53" transform="translate(831.138672 0)"/>
      <use xlink:href="#DejaVuSans-22" transform="translate(894.615234 0)"/>
     </g>
    </g>
   </g>
   <g id="text_6">
    <g clip-path="url(#p9a214d14f0)">
     <!-- "READ DATA BUS" -->
     <g transform="translate(554.404131 426.815957) scale(0.07 -0.07)">
      <use xlink:href="#DejaVuSans-22"/>
      <use xlink:href="#DejaVuSans-52" transform="translate(45.996094 0)"/>
      <use xlink:href="#DejaVuSans-45" transform="translate(115.478516 0)"/>
      <use xlink:href="#DejaVuSans-41" transform="translate(178.662109 0)"/>
      <use xlink:href="#DejaVuSans-44" transform="translate(247.070312 0)"/>
      <use xlink:href="#DejaVuSans-20" transform="translate(324.072266 0)"/>
      <use xlink:href="#DejaVuSans-44" transform="translate(355.859375 0)"/>
      <use xlink:href="#DejaVuSans-41" transform="translate(431.111328 0)"/>
      <use xlink:href="#DejaVuSans-54" transform="translate(491.769531 0)"/>
      <use xlink:href="#DejaVuSans-41" transform="translate(545.103516 0)"/>
      <use xlink:href="#DejaVuSans-20" transform="translate(613.511719 0)"/>
      <use xlink:href="#DejaVuSans-42" transform="translate(645.298828 0)"/>
      <use xlink:href="#DejaVuSans-55" transform="translate(713.902344 0)"/>
      <use xlink:href="#DejaVuSans-53" transform="translate(787.095703 0)"/>
      <use xlink:href="#DejaVuSans-22" transform="translate(850.572266 0)"/>
     </g>
    </g>
   </g>
   <g id="text_7">
    <g clip-path="url(#p9a214d14f0)">
     <!-- "TRANSFER ACKNOWLEDGE" -->
     <g transform="translate(511.878606 428.889995) scale(0.07 -0.07)">
      <defs>
       <path id="DejaVuSans-4b" d="M 628 4666 
L 1259 4666 
L 1259 2694 
L 3353 4666 
L 4166 4666 
L 1850 2491 
L 4331 0 
L 3500 0 
L 1259 2247 
L 1259 0 
L 628 0 
L 628 4666 
z
" transform="scale(0.015625)"/>
       <path id="DejaVuSans-4f" d="M 2522 4238 
Q 1834 4238 1429 3725 
Q 1025 3213 1025 2328 
Q 1025 1447 1429 934 
Q 1834 422 2522 422 
Q 3209 422 3611 934 
Q 4013 1447 4013 2328 
Q 4013 3213 3611 3725 
Q 3209 4238 2522 4238 
z
M 2522 4750 
Q 3503 4750 4090 4092 
Q 4678 3434 4678 2328 
Q 4678 1225 4090 567 
Q 3503 -91 2522 -91 
Q 1538 -91 948 565 
Q 359 1222 359 2328 
Q 359 3434 948 4092 
Q 1538 4750 2522 4750 
z
" transform="scale(0.015625)"/>
      </defs>
      <use xlink:href="#DejaVuSans-22"/>
      <use xlink:href="#DejaVuSans-54" transform="translate(45.996094 0)"/>
      <use xlink:href="#DejaVuSans-52" transform="translate(107.080078 0)"/>
      <use xlink:href="#DejaVuSans-41" transform="translate(172.5625 0)"/>
      <use xlink:href="#DejaVuSans-4e" transform="translate(240.970703 0)"/>
      <use xlink:href="#DejaVuSans-53" transform="translate(315.775391 0)"/>
      <use xlink:href="#DejaVuSans-46" transform="translate(379.251953 0)"/>
      <use xlink:href="#DejaVuSans-45" transform="translate(436.771484 0)"/>
      <use xlink:href="#DejaVuSans-52" transform="translate(499.955078 0)"/>
      <use xlink:href="#DejaVuSans-20" transform="translate(569.4375 0)"/>
      <use xlink:href="#DejaVuSans-41" transform="translate(601.224609 0)"/>
      <use xlink:href="#DejaVuSans-43" transform="translate(667.882812 0)"/>
      <use xlink:href="#DejaVuSans-4b" transform="translate(737.707031 0)"/>
      <use xlink:href="#DejaVuSans-4e" transform="translate(803.283203 0)"/>
      <use xlink:href="#DejaVuSans-4f" transform="translate(878.087891 0)"/>
      <use xlink:href="#DejaVuSans-57" transform="translate(956.798828 0)"/>
      <use xlink:href="#DejaVuSans-4c" transform="translate(1055.675781 0)"/>
      <use xlink:href="#DejaVuSans-45" transform="translate(1111.388672 0)"/>
      <use xlink:href="#DejaVuSans-44" transform="translate(1174.572266 0)"/>
      <use xlink:href="#DejaVuSans-47" transform="translate(1251.574219 0)"/>
      <use xlink:href="#DejaVuSans-45" transform="translate(1329.064453 0)"/>
      <use xlink:href="#DejaVuSans-22" transform="translate(1392.248047 0)"/>
     </g>
    </g>
   </g>
   <g id="text_8">
    <g clip-path="url(#p9a214d14f0)">
     <!-- "SERIAL CLOCK" -->
     <g transform="translate(334.151692 349.768021) scale(0.07 -0.07)">
      <use xlink:href="#DejaVuSans-22"/>
      <use xlink:href="#DejaVuSans-53" transform="translate(45.996094 0)"/>
      <use xlink:href="#DejaVuSans-45" transform="translate(109.472656 0)"/>
      <use xlink:href="#DejaVuSans-52" transform="translate(172.65625 0)"/>
      <use xlink:href="#DejaVuSans-49" transform="translate(242.138672 0)"/>
      <use xlink:href="#DejaVuSans-41" transform="translate(271.630859 0)"/>
      <use xlink:href="#DejaVuSans-4c" transform="translate(340.039062 0)"/>
      <use xlink:href="#DejaVuSans-20" transform="translate(395.751953 0)"/>
      <use xlink:href="#DejaVuSans-43" transform="translate(427.539062 0)"/>
      <use xlink:href="#DejaVuSans-4c" transform="translate(497.363281 0)"/>
      <use xlink:href="#DejaVuSans-4f" transform="translate(549.451172 0)"/>
      <use xlink:href="#DejaVuSans-43" transform="translate(628.162109 0)"/>
      <use xlink:href="#DejaVuSans-4b" transform="translate(697.986328 0)"/>
      <use xlink:href="#DejaVuSans-22" transform="translate(763.5625 0)"/>
     </g>
    </g>
   </g>
   <g id="text_9">
    <g clip-path="url(#p9a214d14f0)">
     <!-- "MASTER DATA OUTPUT" -->
     <g transform="translate(319.507727 368.930946) scale(0.07 -0.07)">
      <defs>
       <path id="DejaVuSans-4d" d="M 628 4666 
L 1569 4666 
L 2759 1491 
L 3956 4666 
L 4897 4666 
L 4897 0 
L 4281 0 
L 4281 4097 
L 3078 897 
L 2444 897 
L 1241 4097 
L 1241 0 
L 628 0 
L 628 4666 
z
" transform="scale(0.015625)"/>
      </defs>
      <use xlink:href="#DejaVuSans-22"/>
      <use xlink:href="#DejaVuSans-4d" transform="translate(45.996094 0)"/>
      <use xlink:href="#DejaVuSans-41" transform="translate(132.275391 0)"/>
      <use xlink:href="#DejaVuSans-53" transform="translate(200.683594 0)"/>
      <use xlink:href="#DejaVuSans-54" transform="translate(264.160156 0)"/>
      <use xlink:href="#DejaVuSans-45" transform="translate(325.244141 0)"/>
      <use xlink:href="#DejaVuSans-52" transform="translate(388.427734 0)"/>
      <use xlink:href="#DejaVuSans-20" transform="translate(457.910156 0)"/>
      <use xlink:href="#DejaVuSans-44" transform="translate(489.697266 0)"/>
      <use xlink:href="#DejaVuSans-41" transform="translate(564.949219 0)"/>
      <use xlink:href="#DejaVuSans-54" transform="translate(625.607422 0)"/>
      <use xlink:href="#DejaVuSans-41" transform="translate(678.941406 0)"/>
      <use xlink:href="#DejaVuSans-20" transform="translate(747.349609 0)"/>
      <use xlink:href="#DejaVuSans-4f" transform="translate(779.136719 0)"/>
      <use xlink:href="#DejaVuSans-55" transform="translate(857.847656 0)"/>
      <use xlink:href="#DejaVuSans-54" transform="translate(931.041016 0)"/>
      <use xlink:href="#DejaVuSans-50" transform="translate(992.125 0)"/>
      <use xlink:href="#DejaVuSans-55" transform="translate(1052.427734 0)"/>
      <use xlink:href="#DejaVuSans-54" transform="translate(1125.621094 0)"/>
      <use xlink:href="#DejaVuSans-22" transform="translate(1186.705078 0)"/>
     </g>
    </g>
   </g>
   <g id="text_10">
    <g clip-path="url(#p9a214d14f0)">
     <!-- "MASTER DATA INPUT" -->
     <g transform="translate(337.623584 384.431618) scale(0.07 -0.07)">
      <use xlink:href="#DejaVuSans-22"/>
      <use xlink:href="#DejaVuSans-4d" transform="translate(45.996094 0)"/>
      <use xlink:href="#DejaVuSans-41" transform="translate(132.275391 0)"/>
      <use xlink:href="#DejaVuSans-53" transform="translate(200.683594 0)"/>
      <use xlink:href="#DejaVuSans-54" transform="translate(264.160156 0)"/>
      <use xlink:href="#DejaVuSans-45" transform="translate(325.244141 0)"/>
      <use xlink:href="#DejaVuSans-52" transform="translate(388.427734 0)"/>
      <use xlink:href="#DejaVuSans-20" transform="translate(457.910156 0)"/>
      <use xlink:href="#DejaVuSans-44" transform="translate(489.697266 0)"/>
      <use xlink:href="#DejaVuSans-41" transform="translate(564.949219 0)"/>
      <use xlink:href="#DejaVuSans-54" transform="translate(625.607422 0)"/>
      <use xlink:href="#DejaVuSans-41" transform="translate(678.941406 0)"/>
      <use xlink:href="#DejaVuSans-20" transform="translate(747.349609 0)"/>
      <use xlink:href="#DejaVuSans-49" transform="translate(779.136719 0)"/>
      <use xlink:href="#DejaVuSans-4e" transform="translate(808.628906 0)"/>
      <use xlink:href="#DejaVuSans-50" transform="translate(883.433594 0)"/>
      <use xlink:href="#DejaVuSans-55" transform="translate(943.736328 0)"/>
      <use xlink:href="#DejaVuSans-54" transform="translate(1016.929688 0)"/>
      <use xlink:href="#DejaVuSans-22" transform="translate(1078.013672 0)"/>
     </g>
    </g>
   </g>
   <g id="text_11">
    <g clip-path="url(#p9a214d14f0)">
     <!-- "CHIP SELECT" -->
     <g transform="translate(375.520863 391.85429) scale(0.07 -0.07)">
      <use xlink:href="#DejaVuSans-22"/>
      <use xlink:href="#DejaVuSans-43" transform="translate(45.996094 0)"/>
      <use xlink:href="#DejaVuSans-48" transform="translate(115.820312 0)"/>
      <use xlink:href="#DejaVuSans-49" transform="translate(191.015625 0)"/>
      <use xlink:href="#DejaVuSans-50" transform="translate(220.507812 0)"/>
      <use xlink:href="#DejaVuSans-20" transform="translate(280.810547 0)"/>
      <use xlink:href="#DejaVuSans-53" transform="translate(312.597656 0)"/>
      <use xlink:href="#DejaVuSans-45" transform="translate(376.074219 0)"/>
      <use xlink:href="#DejaVuSans-4c" transform="translate(439.257812 0)"/>
      <use xlink:href="#DejaVuSans-45" transform="translate(494.970703 0)"/>
      <use xlink:href="#DejaVuSans-43" transform="translate(558.154297 0)"/>
      <use xlink:href="#DejaVuSans-54" transform="translate(627.978516 0)"/>
      <use xlink:href="#DejaVuSans-22" transform="translate(689.0625 0)"/>
     </g>
    </g>
   </g>
   <g id="text_12">
    <g clip-path="url(#p9a214d14f0)">
     <!-- "INTERRUPT REQUEST" -->
     <g transform="translate(404.268196 287.24475) scale(0.07 -0.07)">
      <defs>
       <path id="DejaVuSans-51" d="M 2522 4238 
Q 1834 4238 1429 3725 
Q 1025 3213 1025 2328 
Q 1025 1447 1429 934 
Q 1834 422 2522 422 
Q 3209 422 3611 934 
Q 4013 1447 4013 2328 
Q 4013 3213 3611 3725 
Q 3209 4238 2522 4238 
z
M 3406 84 
L 4238 -825 
L 3475 -825 
L 2784 -78 
Q 2681 -84 2626 -87 
Q 2572 -91 2522 -91 
Q 1538 -91 948 567 
Q 359 1225 359 2328 
Q 359 3434 948 4092 
Q 1538 4750 2522 4750 
Q 3503 4750 4090 4092 
Q 4678 3434 4678 2328 
Q 4678 1516 4351 937 
Q 4025 359 3406 84 
z
" transform="scale(0.015625)"/>
      </defs>
      <use xlink:href="#DejaVuSans-22"/>
      <use xlink:href="#DejaVuSans-49" transform="translate(45.996094 0)"/>
      <use xlink:href="#DejaVuSans-4e" transform="translate(75.488281 0)"/>
      <use xlink:href="#DejaVuSans-54" transform="translate(150.292969 0)"/>
      <use xlink:href="#DejaVuSans-45" transform="translate(211.376953 0)"/>
      <use xlink:href="#DejaVuSans-52" transform="translate(274.560547 0)"/>
      <use xlink:href="#DejaVuSans-52" transform="translate(344.042969 0)"/>
      <use xlink:href="#DejaVuSans-55" transform="translate(413.525391 0)"/>
      <use xlink:href="#DejaVuSans-50" transform="translate(486.71875 0)"/>
      <use xlink:href="#DejaVuSans-54" transform="translate(547.021484 0)"/>
      <use xlink:href="#DejaVuSans-20" transform="translate(608.105469 0)"/>
      <use xlink:href="#DejaVuSans-52" transform="translate(639.892578 0)"/>
      <use xlink:href="#DejaVuSans-45" transform="translate(709.375 0)"/>
      <use xlink:href="#DejaVuSans-51" transform="translate(772.558594 0)"/>
      <use xlink:href="#DejaVuSans-55" transform="translate(851.269531 0)"/>
      <use xlink:href="#DejaVuSans-45" transform="translate(924.462891 0)"/>
      <use xlink:href="#DejaVuSans-53" transform="translate(987.646484 0)"/>
      <use xlink:href="#DejaVuSans-54" transform="translate(1051.123047 0)"/>
      <use xlink:href="#DejaVuSans-22" transform="translate(1112.207031 0)"/>
     </g>
    </g>
   </g>
   <g id="text_13">
    <g clip-path="url(#p9a214d14f0)">
     <!-- "TRANSMISSION COMPLETE" -->
     <g transform="translate(881.589562 126.510515) scale(0.07 -0.07)">
      <use xlink:href="#DejaVuSans-22"/>
      <use xlink:href="#DejaVuSans-54" transform="translate(45.996094 0)"/>
      <use xlink:href="#DejaVuSans-52" transform="translate(107.080078 0)"/>
      <use xlink:href="#DejaVuSans-41" transform="translate(172.5625 0)"/>
      <use xlink:href="#DejaVuSans-4e" transform="translate(240.970703 0)"/>
      <use xlink:href="#DejaVuSans-53" transform="translate(315.775391 0)"/>
      <use xlink:href="#DejaVuSans-4d" transform="translate(379.251953 0)"/>
      <use xlink:href="#DejaVuSans-49" transform="translate(465.53125 0)"/>
      <use xlink:href="#DejaVuSans-53" transform="translate(495.023438 0)"/>
      <use xlink:href="#DejaVuSans-53" transform="translate(558.5 0)"/>
      <use xlink:href="#DejaVuSans-49" transform="translate(621.976562 0)"/>
      <use xlink:href="#DejaVuSans-4f" transform="translate(651.46875 0)"/>
      <use xlink:href="#DejaVuSans-4e" transform="translate(730.179688 0)"/>
      <use xlink:href="#DejaVuSans-20" transform="translate(804.984375 0)"/>
      <use xlink:href="#DejaVuSans-43" transform="translate(836.771484 0)"/>
      <use xlink:href="#DejaVuSans-4f" transform="translate(906.595703 0)"/>
      <use xlink:href="#DejaVuSans-4d" transform="translate(985.306641 0)"/>
      <use xlink:href="#DejaVuSans-50" transform="translate(1071.585938 0)"/>
      <use xlink:href="#DejaVuSans-4c" transform="translate(1131.888672 0)"/>
      <use xlink:href="#DejaVuSans-45" transform="translate(1187.601562 0)"/>
      <use xlink:href="#DejaVuSans-54" transform="translate(1250.785156 0)"/>
      <use xlink:href="#DejaVuSans-45" transform="translate(1311.869141 0)"/>
      <use xlink:href="#DejaVuSans-22" transform="translate(1375.052734 0)"/>
     </g>
    </g>
   </g>
   <g id="text_14">
    <g clip-path="url(#p9a214d14f0)">
     <!-- "TRANSMIT ACKNOWLEDGE" -->
     <g transform="translate(302.422276 676.242415) scale(0.07 -0.07)">
      <use xlink:href="#DejaVuSans-22"/>
      <use xlink:href="#DejaVuSans-54" transform="translate(45.996094 0)"/>
      <use xlink:href="#DejaVuSans-52" transform="translate(107.080078 0)"/>
      <use xlink:href="#DejaVuSans-41" transform="translate(172.5625 0)"/>
      <use xlink:href="#DejaVuSans-4e" transform="translate(240.970703 0)"/>
      <use xlink:href="#DejaVuSans-53" transform="translate(315.775391 0)"/>
      <use xlink:href="#DejaVuSans-4d" transform="translate(379.251953 0)"/>
      <use xlink:href="#DejaVuSans-49" transform="translate(465.53125 0)"/>
      <use xlink:href="#DejaVuSans-54" transform="translate(495.023438 0)"/>
      <use xlink:href="#DejaVuSans-20" transform="translate(556.107422 0)"/>
      <use xlink:href="#DejaVuSans-41" transform="translate(587.894531 0)"/>
      <use xlink:href="#DejaVuSans-43" transform="translate(654.552734 0)"/>
      <use xlink:href="#DejaVuSans-4b" transform="translate(724.376953 0)"/>
      <use xlink:href="#DejaVuSans-4e" transform="translate(789.953125 0)"/>
      <use xlink:href="#DejaVuSans-4f" transform="translate(864.757812 0)"/>
      <use xlink:href="#DejaVuSans-57" transform="translate(943.46875 0)"/>
      <use xlink:href="#DejaVuSans-4c" transform="translate(1042.345703 0)"/>
      <use xlink:href="#DejaVuSans-45" transform="translate(1098.058594 0)"/>
      <use xlink:href="#DejaVuSans-44" transform="translate(1161.242188 0)"/>
      <use xlink:href="#DejaVuSans-47" transform="translate(1238.244141 0)"/>
      <use xlink:href="#DejaVuSans-45" transform="translate(1315.734375 0)"/>
      <use xlink:href="#DejaVuSans-22" transform="translate(1378.917969 0)"/>
     </g>
    </g>
   </g>
   <g id="text_15">
    <g clip-path="url(#p9a214d14f0)">
     <!-- "FIFO EMPTY STATUS" -->
     <g transform="translate(910.755277 385.595421) scale(0.07 -0.07)">
      <defs>
       <path id="DejaVuSans-59" d="M -13 4666 
L 666 4666 
L 1959 2747 
L 3244 4666 
L 3922 4666 
L 2272 2222 
L 2272 0 
L 1638 0 
L 1638 2222 
L -13 4666 
z
" transform="scale(0.015625)"/>
      </defs>
      <use xlink:href="#DejaVuSans-22"/>
      <use xlink:href="#DejaVuSans-46" transform="translate(45.996094 0)"/>
      <use xlink:href="#DejaVuSans-49" transform="translate(103.515625 0)"/>
      <use xlink:href="#DejaVuSans-46" transform="translate(133.007812 0)"/>
      <use xlink:href="#DejaVuSans-4f" transform="translate(190.527344 0)"/>
      <use xlink:href="#DejaVuSans-20" transform="translate(269.238281 0)"/>
      <use xlink:href="#DejaVuSans-45" transform="translate(301.025391 0)"/>
      <use xlink:href="#DejaVuSans-4d" transform="translate(364.208984 0)"/>
      <use xlink:href="#DejaVuSans-50" transform="translate(450.488281 0)"/>
      <use xlink:href="#DejaVuSans-54" transform="translate(510.791016 0)"/>
      <use xlink:href="#DejaVuSans-59" transform="translate(571.875 0)"/>
      <use xlink:href="#DejaVuSans-20" transform="translate(632.958984 0)"/>
      <use xlink:href="#DejaVuSans-53" transform="translate(664.746094 0)"/>
      <use xlink:href="#DejaVuSans-54" transform="translate(728.222656 0)"/>
      <use xlink:href="#DejaVuSans-41" transform="translate(781.556641 0)"/>
      <use xlink:href="#DejaVuSans-54" transform="translate(842.214844 0)"/>
      <use xlink:href="#DejaVuSans-55" transform="translate(903.298828 0)"/>
      <use xlink:href="#DejaVuSans-53" transform="translate(976.492188 0)"/>
      <use xlink:href="#DejaVuSans-22" transform="translate(1039.96875 0)"/>
     </g>
    </g>
   </g>
   <g id="text_16">
    <g clip-path="url(#p9a214d14f0)">
     <!-- "DATA VALID" -->
     <g transform="translate(28.443629 392.670264) scale(0.07 -0.07)">
      <defs>
       <path id="DejaVuSans-56" d="M 1831 0 
L 50 4666 
L 709 4666 
L 2188 738 
L 3669 4666 
L 4325 4666 
L 2547 0 
L 1831 0 
z
" transform="scale(0.015625)"/>
      </defs>
      <use xlink:href="#DejaVuSans-22"/>
      <use xlink:href="#DejaVuSans-44" transform="translate(45.996094 0)"/>
      <use xlink:href="#DejaVuSans-41" transform="translate(121.248047 0)"/>
      <use xlink:href="#DejaVuSans-54" transform="translate(181.90625 0)"/>
      <use xlink:href="#DejaVuSans-41" transform="translate(235.240234 0)"/>
      <use xlink:href="#DejaVuSans-20" transform="translate(303.648438 0)"/>
      <use xlink:href="#DejaVuSans-56" transform="translate(335.435547 0)"/>
      <use xlink:href="#DejaVuSans-41" transform="translate(397.46875 0)"/>
      <use xlink:href="#DejaVuSans-4c" transform="translate(465.876953 0)"/>
      <use xlink:href="#DejaVuSans-49" transform="translate(521.589844 0)"/>
      <use xlink:href="#DejaVuSans-44" transform="translate(551.082031 0)"/>
      <use xlink:href="#DejaVuSans-22" transform="translate(628.083984 0)"/>
     </g>
    </g>
   </g>
   <g id="text_17">
    <g clip-path="url(#p9a214d14f0)">
     <!-- "PARITY ERROR FLAG" -->
     <g transform="translate(68.46191 106.265231) scale(0.07 -0.07)">
      <use xlink:href="#DejaVuSans-22"/>
      <use xlink:href="#DejaVuSans-50" transform="translate(45.996094 0)"/>
      <use xlink:href="#DejaVuSans-41" transform="translate(99.923828 0)"/>
      <use xlink:href="#DejaVuSans-52" transform="translate(168.332031 0)"/>
      <use xlink:href="#DejaVuSans-49" transform="translate(237.814453 0)"/>
      <use xlink:href="#DejaVuSans-54" transform="translate(267.306641 0)"/>
      <use xlink:href="#DejaVuSans-59" transform="translate(328.390625 0)"/>
      <use xlink:href="#DejaVuSans-20" transform="translate(389.474609 0)"/>
      <use xlink:href="#DejaVuSans-45" transform="translate(421.261719 0)"/>
      <use xlink:href="#DejaVuSans-52" transform="translate(484.445312 0)"/>
      <use xlink:href="#DejaVuSans-52" transform="translate(553.927734 0)"/>
      <use xlink:href="#DejaVuSans-4f" transform="translate(623.410156 0)"/>
      <use xlink:href="#DejaVuSans-52" transform="translate(702.121094 0)"/>
      <use xlink:href="#DejaVuSans-20" transform="translate(771.603516 0)"/>
      <use xlink:href="#DejaVuSans-46" transform="translate(803.390625 0)"/>
      <use xlink:href="#DejaVuSans-4c" transform="translate(860.910156 0)"/>
      <use xlink:href="#DejaVuSans-41" transform="translate(918.873047 0)"/>
      <use xlink:href="#DejaVuSans-47" transform="translate(985.53125 0)"/>
      <use xlink:href="#DejaVuSans-22" transform="translate(1063.021484 0)"/>
     </g>
    </g>
   </g>
   <g id="text_18">
    <g clip-path="url(#p9a214d14f0)">
     <!-- "RECEIVE BUFFER FULL" -->
     <g transform="translate(223.927303 55.29696) scale(0.07 -0.07)">
      <use xlink:href="#DejaVuSans-22"/>
      <use xlink:href="#DejaVuSans-52" transform="translate(45.996094 0)"/>
      <use xlink:href="#DejaVuSans-45" transform="translate(115.478516 0)"/>
      <use xlink:href="#DejaVuSans-43" transform="translate(178.662109 0)"/>
      <use xlink:href="#DejaVuSans-45" transform="translate(248.486328 0)"/>
      <use xlink:href="#DejaVuSans-49" transform="translate(311.669922 0)"/>
      <use xlink:href="#DejaVuSans-56" transform="translate(341.162109 0)"/>
      <use xlink:href="#DejaVuSans-45" transform="translate(409.570312 0)"/>
      <use xlink:href="#DejaVuSans-20" transform="translate(472.753906 0)"/>
      <use xlink:href="#DejaVuSans-42" transform="translate(504.541016 0)"/>
      <use xlink:href="#DejaVuSans-55" transform="translate(573.144531 0)"/>
      <use xlink:href="#DejaVuSans-46" transform="translate(646.337891 0)"/>
      <use xlink:href="#DejaVuSans-46" transform="translate(703.857422 0)"/>
      <use xlink:href="#DejaVuSans-45" transform="translate(761.376953 0)"/>
      <use xlink:href="#DejaVuSans-52" transform="translate(824.560547 0)"/>
      <use xlink:href="#DejaVuSans-20" transform="translate(894.042969 0)"/>
      <use xlink:href="#DejaVuSans-46" transform="translate(925.830078 0)"/>
      <use xlink:href="#DejaVuSans-55" transform="translate(983.349609 0)"/>
      <use xlink:href="#DejaVuSans-4c" transform="translate(1056.542969 0)"/>
      <use xlink:href="#DejaVuSans-4c" transform="translate(1112.255859 0)"/>
      <use xlink:href="#DejaVuSans-22" transform="translate(1167.96875 0)"/>
     </g>
    </g>
   </g>
   <g id="text_19">
    <g clip-path="url(#p9a214d14f0)">
     <!-- "FLOW CONTROL ENABLE" -->
     <g transform="translate(821.13689 328.098333) scale(0.07 -0.07)">
      <use xlink:href="#DejaVuSans-22"/>
      <use xlink:href="#DejaVuSans-46" transform="translate(45.996094 0)"/>
      <use xlink:href="#DejaVuSans-4c" transform="translate(103.515625 0)"/>
      <use xlink:href="#DejaVuSans-4f" transform="translate(155.603516 0)"/>
      <use xlink:href="#DejaVuSans-57" transform="translate(234.314453 0)"/>
      <use xlink:href="#DejaVuSans-20" transform="translate(333.191406 0)"/>
      <use xlink:href="#DejaVuSans-43" transform="translate(364.978516 0)"/>
      <use xlink:href="#DejaVuSans-4f" transform="translate(434.802734 0)"/>
      <use xlink:href="#DejaVuSans-4e" transform="translate(513.513672 0)"/>
      <use xlink:href="#DejaVuSans-54" transform="translate(588.318359 0)"/>
      <use xlink:href="#DejaVuSans-52" transform="translate(649.402344 0)"/>
      <use xlink:href="#DejaVuSans-4f" transform="translate(718.884766 0)"/>
      <use xlink:href="#DejaVuSans-4c" transform="translate(797.595703 0)"/>
      <use xlink:href="#DejaVuSans-20" transform="translate(853.308594 0)"/>
      <use xlink:href="#DejaVuSans-45" transform="translate(885.095703 0)"/>
      <use xlink:href="#DejaVuSans-4e" transform="translate(948.279297 0)"/>
      <use xlink:href="#DejaVuSans-41" transform="translate(1023.083984 0)"/>
      <use xlink:href="#DejaVuSans-42" transform="translate(1091.492188 0)"/>
      <use xlink:href="#DejaVuSans-4c" transform="translate(1160.095703 0)"/>
      <use xlink:href="#DejaVuSans-45" transform="translate(1215.808594 0)"/>
      <use xlink:href="#DejaVuSans-22" transform="translate(1278.992188 0)"/>
     </g>
    </g>
   </g>
   <g id="text_20">
    <g clip-path="url(#p9a214d14f0)">
     <!-- "CTS" -->
     <g transform="translate(569.550614 212.622002) scale(0.07 -0.07)">
      <use xlink:href="#DejaVuSans-22"/>
      <use xlink:href="#DejaVuSans-43" transform="translate(45.996094 0)"/>
      <use xlink:href="#DejaVuSans-54" transform="translate(115.820312 0)"/>
      <use xlink:href="#DejaVuSans-53" transform="translate(176.904297 0)"/>
      <use xlink:href="#DejaVuSans-22" transform="translate(240.380859 0)"/>
     </g>
    </g>
   </g>
   <g id="text_21">
    <g clip-path="url(#p9a214d14f0)">
     <!-- "RTS" -->
     <g transform="translate(595.081949 229.8766) scale(0.07 -0.07)">
      <use xlink:href="#DejaVuSans-22"/>
      <use xlink:href="#DejaVuSans-52" transform="translate(45.996094 0)"/>
      <use xlink:href="#DejaVuSans-54" transform="translate(108.228516 0)"/>
      <use xlink:href="#DejaVuSans-53" transform="translate(169.3125 0)"/>
      <use xlink:href="#DejaVuSans-22" transform="translate(232.789062 0)"/>
     </g>
    </g>
   </g>
   <g id="text_22">
    <!-- Unified KG (Spec + RTL + Signal Alignment) -->
    <g transform="translate(368.067187 16.318125) scale(0.12 -0.12)">
     <defs>
      <path id="DejaVuSans-6e" d="M 3513 2113 
L 3513 0 
L 2938 0 
L 2938 2094 
Q 2938 2591 2744 2837 
Q 2550 3084 2163 3084 
Q 1697 3084 1428 2787 
Q 1159 2491 1159 1978 
L 1159 0 
L 581 0 
L 581 3500 
L 1159 3500 
L 1159 2956 
Q 1366 3272 1645 3428 
Q 1925 3584 2291 3584 
Q 2894 3584 3203 3211 
Q 3513 2838 3513 2113 
z
" transform="scale(0.015625)"/>
      <path id="DejaVuSans-69" d="M 603 3500 
L 1178 3500 
L 1178 0 
L 603 0 
L 603 3500 
z
M 603 4863 
L 1178 4863 
L 1178 4134 
L 603 4134 
L 603 4863 
z
" transform="scale(0.015625)"/>
      <path id="DejaVuSans-66" d="M 2375 4863 
L 2375 4384 
L 1825 4384 
Q 1516 4384 1395 4259 
Q 1275 4134 1275 3809 
L 1275 3500 
L 2222 3500 
L 2222 3053 
L 1275 3053 
L 1275 0 
L 697 0 
L 697 3053 
L 147 3053 
L 147 3500 
L 697 3500 
L 697 3744 
Q 697 4328 969 4595 
Q 1241 4863 1831 4863 
L 2375 4863 
z
" transform="scale(0.015625)"/>
      <path id="DejaVuSans-65" d="M 3597 1894 
L 3597 1613 
L 953 1613 
Q 991 1019 1311 708 
Q 1631 397 2203 397 
Q 2534 397 2845 478 
Q 3156 559 3463 722 
L 3463 178 
Q 3153 47 2828 -22 
Q 2503 -91 2169 -91 
Q 1331 -91 842 396 
Q 353 884 353 1716 
Q 353 2575 817 3079 
Q 1281 3584 2069 3584 
Q 2775 3584 3186 3129 
Q 3597 2675 3597 1894 
z
M 3022 2063 
Q 3016 2534 2758 2815 
Q 2500 3097 2075 3097 
Q 1594 3097 1305 2825 
Q 1016 2553 972 2059 
L 3022 2063 
z
" transform="scale(0.015625)"/>
      <path id="DejaVuSans-64" d="M 2906 2969 
L 2906 4863 
L 3481 4863 
L 3481 0 
L 2906 0 
L 2906 525 
Q 2725 213 2448 61 
Q 2172 -91 1784 -91 
Q 1150 -91 751 415 
Q 353 922 353 1747 
Q 353 2572 751 3078 
Q 1150 3584 1784 3584 
Q 2172 3584 2448 3432 
Q 2725 3281 2906 2969 
z
M 947 1747 
Q 947 1113 1208 752 
Q 1469 391 1925 391 
Q 2381 391 2643 752 
Q 2906 1113 2906 1747 
Q 2906 2381 2643 2742 
Q 2381 3103 1925 3103 
Q 1469 3103 1208 2742 
Q 947 2381 947 1747 
z
" transform="scale(0.015625)"/>
      <path id="DejaVuSans-28" d="M 1984 4856 
Q 1566 4138 1362 3434 
Q 1159 2731 1159 2009 
Q 1159 1288 1364 580 
Q 1569 -128 1984 -844 
L 1484 -844 
Q 1016 -109 783 600 
Q 550 1309 550 2009 
Q 550 2706 781 3412 
Q 1013 4119 1484 4856 
L 1984 4856 
z
" transform="scale(0.015625)"/>
      <path id="DejaVuSans-70" d="M 1159 525 
L 1159 -1331 
L 581 -1331 
L 581 3500 
L 1159 3500 
L 1159 2969 
Q 1341 3281 1617 3432 
Q 1894 3584 2278 3584 
Q 2916 3584 3314 3078 
Q 3713 2572 3713 1747 
Q 3713 922 3314 415 
Q 2916 -91 2278 -91 
Q 1894 -91 1617 61 
Q 1341 213 1159 525 
z
M 3116 1747 
Q 3116 2381 2855 2742 
Q 2594 3103 2138 3103 
Q 1681 3103 1420 2742 
Q 1159 2381 1159 1747 
Q 1159 1113 1420 752 
Q 1681 391 2138 391 
Q 2594 391 2855 752 
Q 3116 1113 3116 1747 
z
" transform="scale(0.015625)"/>
      <path id="DejaVuSans-63" d="M 3122 3366 
L 3122 2828 
Q 2878 2963 2633 3030 
Q 2388 3097 2138 3097 
Q 1578 3097 1268 2742 
Q 959 2388 959 1747 
Q 959 1106 1268 751 
Q 1578 397 2138 397 
Q 2388 397 2633 464 
Q 2878 531 3122 666 
L 3122 134 
Q 2881 22 2623 -34 
Q 2366 -91 2075 -91 
Q 1284 -91 818 406 
Q 353 903 353 1747 
Q 353 2603 823 3093 
Q 1294 3584 2113 3584 
Q 2378 3584 2631 3529 
Q 2884 3475 3122 3366 
z
" transform="scale(0.015625)"/>
      <path id="DejaVuSans-2b" d="M 2944 4013 
L 2944 2272 
L 4684 2272 
L 4684 1741 
L 2944 1741 
L 2944 0 
L 2419 0 
L 2419 1741 
L 678 1741 
L 678 2272 
L 2419 2272 
L 2419 4013 
L 2944 4013 
z
" transform="scale(0.015625)"/>
      <path id="DejaVuSans-67" d="M 2906 1791 
Q 2906 2416 2648 2759 
Q 2391 3103 1925 3103 
Q 1463 3103 1205 2759 
Q 947 2416 947 1791 
Q 947 1169 1205 825 
Q 1463 481 1925 481 
Q 2391 481 2648 825 
Q 2906 1169 2906 1791 
z
M 3481 434 
Q 3481 -459 3084 -895 
Q 2688 -1331 1869 -1331 
Q 1566 -1331 1297 -1286 
Q 1028 -1241 775 -1147 
L 775 -588 
Q 1028 -725 1275 -790 
Q 1522 -856 1778 -856 
Q 2344 -856 2625 -561 
Q 2906 -266 2906 331 
L 2906 616 
Q 2728 306 2450 153 
Q 2172 0 1784 0 
Q 1141 0 747 490 
Q 353 981 353 1791 
Q 353 2603 747 3093 
Q 1141 3584 1784 3584 
Q 2172 3584 2450 3431 
Q 2728 3278 2906 2969 
L 2906 3500 
L 3481 3500 
L 3481 434 
z
" transform="scale(0.015625)"/>
      <path id="DejaVuSans-61" d="M 2194 1759 
Q 1497 1759 1228 1600 
Q 959 1441 959 1056 
Q 959 750 1161 570 
Q 1363 391 1709 391 
Q 2188 391 2477 730 
Q 2766 1069 2766 1631 
L 2766 1759 
L 2194 1759 
z
M 3341 1997 
L 3341 0 
L 2766 0 
L 2766 531 
Q 2569 213 2275 61 
Q 1981 -91 1556 -91 
Q 1019 -91 701 211 
Q 384 513 384 1019 
Q 384 1609 779 1909 
Q 1175 2209 1959 2209 
L 2766 2209 
L 2766 2266 
Q 2766 2663 2505 2880 
Q 2244 3097 1772 3097 
Q 1472 3097 1187 3025 
Q 903 2953 641 2809 
L 641 3341 
Q 956 3463 1253 3523 
Q 1550 3584 1831 3584 
Q 2591 3584 2966 3190 
Q 3341 2797 3341 1997 
z
" transform="scale(0.015625)"/>
      <path id="DejaVuSans-6c" d="M 603 4863 
L 1178 4863 
L 1178 0 
L 603 0 
L 603 4863 
z
" transform="scale(0.015625)"/>
      <path id="DejaVuSans-6d" d="M 3328 2828 
Q 3544 3216 3844 3400 
Q 4144 3584 4550 3584 
Q 5097 3584 5394 3201 
Q 5691 2819 5691 2113 
L 5691 0 
L 5113 0 
L 5113 2094 
Q 5113 2597 4934 2840 
Q 4756 3084 4391 3084 
Q 3944 3084 3684 2787 
Q 3425 2491 3425 1978 
L 3425 0 
L 2847 0 
L 2847 2094 
Q 2847 2600 2669 2842 
Q 2491 3084 2119 3084 
Q 1678 3084 1418 2786 
Q 1159 2488 1159 1978 
L 1159 0 
L 581 0 
L 581 3500 
L 1159 3500 
L 1159 2956 
Q 1356 3278 1631 3431 
Q 1906 3584 2284 3584 
Q 2666 3584 2933 3390 
Q 3200 3197 3328 2828 
z
" transform="scale(0.015625)"/>
      <path id="DejaVuSans-74" d="M 1172 4494 
L 1172 3500 
L 2356 3500 
L 2356 3053 
L 1172 3053 
L 1172 1153 
Q 1172 725 1289 603 
Q 1406 481 1766 481 
L 2356 481 
L 2356 0 
L 1766 0 
Q 1100 0 847 248 
Q 594 497 594 1153 
L 594 3053 
L 172 3053 
L 172 3500 
L 594 3500 
L 594 4494 
L 1172 4494 
z
" transform="scale(0.015625)"/>
      <path id="DejaVuSans-29" d="M 513 4856 
L 1013 4856 
Q 1481 4119 1714 3412 
Q 1947 2706 1947 2009 
Q 1947 1309 1714 600 
Q 1481 -109 1013 -844 
L 513 -844 
Q 928 -128 1133 580 
Q 1338 1288 1338 2009 
Q 1338 2731 1133 3434 
Q 928 4138 513 4856 
z
" transform="scale(0.015625)"/>
     </defs>
     <use xlink:href="#DejaVuSans-55"/>
     <use xlink:href="#DejaVuSans-6e" transform="translate(73.193359 0)"/>
     <use xlink:href="#DejaVuSans-69" transform="translate(136.572266 0)"/>
     <use xlink:href="#DejaVuSans-66" transform="translate(164.355469 0)"/>
     <use xlink:href="#DejaVuSans-69" transform="translate(199.560547 0)"/>
     <use xlink:href="#DejaVuSans-65" transform="translate(227.34375 0)"/>
     <use xlink:href="#DejaVuSans-64" transform="translate(288.867188 0)"/>
     <use xlink:href="#DejaVuSans-20" transform="translate(352.34375 0)"/>
     <use xlink:href="#DejaVuSans-4b" transform="translate(384.130859 0)"/>
     <use xlink:href="#DejaVuSans-47" transform="translate(449.707031 0)"/>
     <use xlink:href="#DejaVuSans-20" transform="translate(527.197266 0)"/>
     <use xlink:href="#DejaVuSans-28" transform="translate(558.984375 0)"/>
     <use xlink:href="#DejaVuSans-53" transform="translate(597.998047 0)"/>
     <use xlink:href="#DejaVuSans-70" transform="translate(661.474609 0)"/>
     <use xlink:href="#DejaVuSans-65" transform="translate(724.951172 0)"/>
     <use xlink:href="#DejaVuSans-63" transform="translate(786.474609 0)"/>
     <use xlink:href="#DejaVuSans-20" transform="translate(841.455078 0)"/>
     <use xlink:href="#DejaVuSans-2b" transform="translate(873.242188 0)"/>
     <use xlink:href="#DejaVuSans-20" transform="translate(957.03125 0)"/>
     <use xlink:href="#DejaVuSans-52" transform="translate(988.818359 0)"/>
     <use xlink:href="#DejaVuSans-54" transform="translate(1051.050781 0)"/>
     <use xlink:href="#DejaVuSans-4c" transform="translate(1112.134766 0)"/>
     <use xlink:href="#DejaVuSans-20" transform="translate(1167.847656 0)"/>
     <use xlink:href="#DejaVuSans-2b" transform="translate(1199.634766 0)"/>
     <use xlink:href="#DejaVuSans-20" transform="translate(1283.423828 0)"/>
     <use xlink:href="#DejaVuSans-53" transform="translate(1315.210938 0)"/>
     <use xlink:href="#DejaVuSans-69" transform="translate(1378.6875 0)"/>
     <use xlink:href="#DejaVuSans-67" transform="translate(1406.470703 0)"/>
     <use xlink:href="#DejaVuSans-6e" transform="translate(1469.947266 0)"/>
     <use xlink:href="#DejaVuSans-61" transform="translate(1533.326172 0)"/>
     <use xlink:href="#DejaVuSans-6c" transform="translate(1594.605469 0)"/>
     <use xlink:href="#DejaVuSans-20" transform="translate(1622.388672 0)"/>
     <use xlink:href="#DejaVuSans-41" transform="translate(1654.175781 0)"/>
     <use xlink:href="#DejaVuSans-6c" transform="translate(1722.583984 0)"/>
     <use xlink:href="#DejaVuSans-69" transform="translate(1750.367188 0)"/>
     <use xlink:href="#DejaVuSans-67" transform="translate(1778.150391 0)"/>
     <use xlink:href="#DejaVuSans-6e" transform="translate(1841.626953 0)"/>
     <use xlink:href="#DejaVuSans-6d" transform="translate(1905.005859 0)"/>
     <use xlink:href="#DejaVuSans-65" transform="translate(2002.417969 0)"/>
     <use xlink:href="#DejaVuSans-6e" transform="translate(2063.941406 0)"/>
     <use xlink:href="#DejaVuSans-74" transform="translate(2127.320312 0)"/>
     <use xlink:href="#DejaVuSans-29" transform="translate(2166.529297 0)"/>
    </g>
   </g>
  </g>
 </g>
 <defs>
  <clipPath id="p9a214d14f0">
   <rect x="7.2" y="22.318125" width="986.4" height="683.04"/>
  </clipPath>
 </defs>
</svg>
